<mxfile host="app.diagrams.net" agent="Mozilla/5.0 (Windows NT 10.0; Win64; x64) AppleWebKit/537.36 (KHTML, like Gecko) Chrome/131.0.0.0 Safari/537.36" version="25.0.3">
  <diagram name="Страница — 1" id="c8MQagowN81k3dfMitHR">
    <mxGraphModel dx="4097" dy="6812" grid="0" gridSize="10" guides="1" tooltips="1" connect="1" arrows="1" fold="1" page="1" pageScale="1" pageWidth="3300" pageHeight="4681" background="#ffffff" math="0" shadow="0">
      <root>
        <mxCell id="0" />
        <mxCell id="1" parent="0" />
        <mxCell id="ckGaQ8mt0c1OZZj6wi1W-2" style="edgeStyle=orthogonalEdgeStyle;rounded=0;orthogonalLoop=1;jettySize=auto;html=1;entryX=1;entryY=0.5;entryDx=0;entryDy=0;endArrow=none;endFill=0;startArrow=block;startFill=0;strokeWidth=2;endSize=6;startSize=15;" parent="1" source="_60M-hrK0tJfBThX2oCK-1" target="_60M-hrK0tJfBThX2oCK-20" edge="1">
          <mxGeometry relative="1" as="geometry">
            <Array as="points">
              <mxPoint x="2058" y="-2673" />
              <mxPoint x="1863" y="-2673" />
            </Array>
          </mxGeometry>
        </mxCell>
        <mxCell id="ckGaQ8mt0c1OZZj6wi1W-3" style="edgeStyle=orthogonalEdgeStyle;rounded=0;orthogonalLoop=1;jettySize=auto;html=1;entryX=0;entryY=0.5;entryDx=0;entryDy=0;startArrow=block;startFill=0;endArrow=none;endFill=0;strokeWidth=2;startSize=15;" parent="1" source="_60M-hrK0tJfBThX2oCK-1" target="_60M-hrK0tJfBThX2oCK-32" edge="1">
          <mxGeometry relative="1" as="geometry">
            <Array as="points">
              <mxPoint x="2058" y="-2673" />
              <mxPoint x="2222" y="-2673" />
            </Array>
          </mxGeometry>
        </mxCell>
        <mxCell id="_60M-hrK0tJfBThX2oCK-1" value="Person" style="swimlane;fontStyle=1;align=center;verticalAlign=top;childLayout=stackLayout;horizontal=1;startSize=26;horizontalStack=0;resizeParent=1;resizeParentMax=0;resizeLast=0;collapsible=1;marginBottom=0;whiteSpace=wrap;html=1;fontSize=16;" parent="1" vertex="1">
          <mxGeometry x="1913" y="-3169" width="250" height="424" as="geometry" />
        </mxCell>
        <mxCell id="_60M-hrK0tJfBThX2oCK-2" value="- id: Integer?" style="text;strokeColor=none;fillColor=none;align=left;verticalAlign=top;spacingLeft=4;spacingRight=4;overflow=hidden;rotatable=0;points=[[0,0.5],[1,0.5]];portConstraint=eastwest;whiteSpace=wrap;html=1;fontSize=16;" parent="_60M-hrK0tJfBThX2oCK-1" vertex="1">
          <mxGeometry y="26" width="250" height="26" as="geometry" />
        </mxCell>
        <mxCell id="_60M-hrK0tJfBThX2oCK-3" value="- git: String?" style="text;strokeColor=none;fillColor=none;align=left;verticalAlign=top;spacingLeft=4;spacingRight=4;overflow=hidden;rotatable=0;points=[[0,0.5],[1,0.5]];portConstraint=eastwest;whiteSpace=wrap;html=1;fontSize=16;" parent="_60M-hrK0tJfBThX2oCK-1" vertex="1">
          <mxGeometry y="52" width="250" height="26" as="geometry" />
        </mxCell>
        <mxCell id="_60M-hrK0tJfBThX2oCK-4" value="" style="line;strokeWidth=1;fillColor=none;align=left;verticalAlign=middle;spacingTop=-1;spacingLeft=3;spacingRight=3;rotatable=0;labelPosition=right;points=[];portConstraint=eastwest;strokeColor=inherit;" parent="_60M-hrK0tJfBThX2oCK-1" vertex="1">
          <mxGeometry y="78" width="250" height="8" as="geometry" />
        </mxCell>
        <mxCell id="_60M-hrK0tJfBThX2oCK-5" value="+ initialize(id: nil, git: nil)" style="text;strokeColor=none;fillColor=none;align=left;verticalAlign=top;spacingLeft=4;spacingRight=4;overflow=hidden;rotatable=0;points=[[0,0.5],[1,0.5]];portConstraint=eastwest;whiteSpace=wrap;html=1;fontSize=16;" parent="_60M-hrK0tJfBThX2oCK-1" vertex="1">
          <mxGeometry y="86" width="250" height="26" as="geometry" />
        </mxCell>
        <mxCell id="_60M-hrK0tJfBThX2oCK-6" value="+ id: attr_reader" style="text;strokeColor=none;fillColor=none;align=left;verticalAlign=top;spacingLeft=4;spacingRight=4;overflow=hidden;rotatable=0;points=[[0,0.5],[1,0.5]];portConstraint=eastwest;whiteSpace=wrap;html=1;fontSize=16;" parent="_60M-hrK0tJfBThX2oCK-1" vertex="1">
          <mxGeometry y="112" width="250" height="26" as="geometry" />
        </mxCell>
        <mxCell id="_60M-hrK0tJfBThX2oCK-7" value="+ git: attr_reader" style="text;strokeColor=none;fillColor=none;align=left;verticalAlign=top;spacingLeft=4;spacingRight=4;overflow=hidden;rotatable=0;points=[[0,0.5],[1,0.5]];portConstraint=eastwest;whiteSpace=wrap;html=1;fontSize=16;" parent="_60M-hrK0tJfBThX2oCK-1" vertex="1">
          <mxGeometry y="138" width="250" height="26" as="geometry" />
        </mxCell>
        <mxCell id="_60M-hrK0tJfBThX2oCK-8" value="&lt;u&gt;+ is_valid_name?(name)&lt;/u&gt;" style="text;strokeColor=none;fillColor=none;align=left;verticalAlign=top;spacingLeft=4;spacingRight=4;overflow=hidden;rotatable=0;points=[[0,0.5],[1,0.5]];portConstraint=eastwest;whiteSpace=wrap;html=1;fontSize=16;" parent="_60M-hrK0tJfBThX2oCK-1" vertex="1">
          <mxGeometry y="164" width="250" height="26" as="geometry" />
        </mxCell>
        <mxCell id="_60M-hrK0tJfBThX2oCK-9" value="&lt;u&gt;+ is_valid_id?(id)&lt;/u&gt;" style="text;strokeColor=none;fillColor=none;align=left;verticalAlign=top;spacingLeft=4;spacingRight=4;overflow=hidden;rotatable=0;points=[[0,0.5],[1,0.5]];portConstraint=eastwest;whiteSpace=wrap;html=1;fontSize=16;" parent="_60M-hrK0tJfBThX2oCK-1" vertex="1">
          <mxGeometry y="190" width="250" height="26" as="geometry" />
        </mxCell>
        <mxCell id="_60M-hrK0tJfBThX2oCK-10" value="&lt;u&gt;+ is_valid_phone_num?(phone_num)&lt;/u&gt;" style="text;strokeColor=none;fillColor=none;align=left;verticalAlign=top;spacingLeft=4;spacingRight=4;overflow=hidden;rotatable=0;points=[[0,0.5],[1,0.5]];portConstraint=eastwest;whiteSpace=wrap;html=1;fontSize=16;" parent="_60M-hrK0tJfBThX2oCK-1" vertex="1">
          <mxGeometry y="216" width="250" height="26" as="geometry" />
        </mxCell>
        <mxCell id="_60M-hrK0tJfBThX2oCK-11" value="&lt;u&gt;+ is_valid_telegram?(telegram)&lt;/u&gt;" style="text;strokeColor=none;fillColor=none;align=left;verticalAlign=top;spacingLeft=4;spacingRight=4;overflow=hidden;rotatable=0;points=[[0,0.5],[1,0.5]];portConstraint=eastwest;whiteSpace=wrap;html=1;fontSize=16;" parent="_60M-hrK0tJfBThX2oCK-1" vertex="1">
          <mxGeometry y="242" width="250" height="26" as="geometry" />
        </mxCell>
        <mxCell id="_60M-hrK0tJfBThX2oCK-12" value="&lt;u&gt;+ is_valid_email?(email)&lt;/u&gt;" style="text;strokeColor=none;fillColor=none;align=left;verticalAlign=top;spacingLeft=4;spacingRight=4;overflow=hidden;rotatable=0;points=[[0,0.5],[1,0.5]];portConstraint=eastwest;whiteSpace=wrap;html=1;fontSize=16;" parent="_60M-hrK0tJfBThX2oCK-1" vertex="1">
          <mxGeometry y="268" width="250" height="26" as="geometry" />
        </mxCell>
        <mxCell id="_60M-hrK0tJfBThX2oCK-13" value="&lt;u&gt;+ is_valid_git?(git)&lt;/u&gt;" style="text;strokeColor=none;fillColor=none;align=left;verticalAlign=top;spacingLeft=4;spacingRight=4;overflow=hidden;rotatable=0;points=[[0,0.5],[1,0.5]];portConstraint=eastwest;whiteSpace=wrap;html=1;fontSize=16;" parent="_60M-hrK0tJfBThX2oCK-1" vertex="1">
          <mxGeometry y="294" width="250" height="26" as="geometry" />
        </mxCell>
        <mxCell id="_60M-hrK0tJfBThX2oCK-14" value="&lt;u&gt;+ is_valid_date_of_birth?(date_of_bitrh)&lt;/u&gt;" style="text;strokeColor=none;fillColor=none;align=left;verticalAlign=top;spacingLeft=4;spacingRight=4;overflow=hidden;rotatable=0;points=[[0,0.5],[1,0.5]];portConstraint=eastwest;whiteSpace=wrap;html=1;fontSize=16;" parent="_60M-hrK0tJfBThX2oCK-1" vertex="1">
          <mxGeometry y="320" width="250" height="26" as="geometry" />
        </mxCell>
        <mxCell id="_60M-hrK0tJfBThX2oCK-15" value="+ validate()" style="text;strokeColor=none;fillColor=none;align=left;verticalAlign=top;spacingLeft=4;spacingRight=4;overflow=hidden;rotatable=0;points=[[0,0.5],[1,0.5]];portConstraint=eastwest;whiteSpace=wrap;html=1;fontSize=16;" parent="_60M-hrK0tJfBThX2oCK-1" vertex="1">
          <mxGeometry y="346" width="250" height="26" as="geometry" />
        </mxCell>
        <mxCell id="_60M-hrK0tJfBThX2oCK-16" value="+ initials()" style="text;strokeColor=none;fillColor=none;align=left;verticalAlign=top;spacingLeft=4;spacingRight=4;overflow=hidden;rotatable=0;points=[[0,0.5],[1,0.5]];portConstraint=eastwest;whiteSpace=wrap;html=1;fontSize=16;" parent="_60M-hrK0tJfBThX2oCK-1" vertex="1">
          <mxGeometry y="372" width="250" height="26" as="geometry" />
        </mxCell>
        <mxCell id="_60M-hrK0tJfBThX2oCK-17" value="+ contact()" style="text;strokeColor=none;fillColor=none;align=left;verticalAlign=top;spacingLeft=4;spacingRight=4;overflow=hidden;rotatable=0;points=[[0,0.5],[1,0.5]];portConstraint=eastwest;whiteSpace=wrap;html=1;fontSize=16;" parent="_60M-hrK0tJfBThX2oCK-1" vertex="1">
          <mxGeometry y="398" width="250" height="26" as="geometry" />
        </mxCell>
        <mxCell id="ckGaQ8mt0c1OZZj6wi1W-39" style="edgeStyle=orthogonalEdgeStyle;rounded=0;orthogonalLoop=1;jettySize=auto;html=1;entryX=0.5;entryY=0;entryDx=0;entryDy=0;startArrow=open;startFill=0;endArrow=none;endFill=0;startSize=15;dashed=1;strokeWidth=2;" parent="1" source="_60M-hrK0tJfBThX2oCK-18" target="ckGaQ8mt0c1OZZj6wi1W-4" edge="1">
          <mxGeometry relative="1" as="geometry" />
        </mxCell>
        <mxCell id="_60M-hrK0tJfBThX2oCK-18" value="StudentShort" style="swimlane;fontStyle=1;align=center;verticalAlign=top;childLayout=stackLayout;horizontal=1;startSize=26;horizontalStack=0;resizeParent=1;resizeParentMax=0;resizeLast=0;collapsible=1;marginBottom=0;whiteSpace=wrap;html=1;fontSize=16;" parent="1" vertex="1">
          <mxGeometry x="1533" y="-2823" width="330" height="242" as="geometry" />
        </mxCell>
        <mxCell id="_60M-hrK0tJfBThX2oCK-19" value="- initials: String" style="text;strokeColor=none;fillColor=none;align=left;verticalAlign=top;spacingLeft=4;spacingRight=4;overflow=hidden;rotatable=0;points=[[0,0.5],[1,0.5]];portConstraint=eastwest;whiteSpace=wrap;html=1;fontSize=16;" parent="_60M-hrK0tJfBThX2oCK-18" vertex="1">
          <mxGeometry y="26" width="330" height="26" as="geometry" />
        </mxCell>
        <mxCell id="_60M-hrK0tJfBThX2oCK-20" value="- contact: String?" style="text;strokeColor=none;fillColor=none;align=left;verticalAlign=top;spacingLeft=4;spacingRight=4;overflow=hidden;rotatable=0;points=[[0,0.5],[1,0.5]];portConstraint=eastwest;whiteSpace=wrap;html=1;fontSize=16;" parent="_60M-hrK0tJfBThX2oCK-18" vertex="1">
          <mxGeometry y="52" width="330" height="26" as="geometry" />
        </mxCell>
        <mxCell id="_60M-hrK0tJfBThX2oCK-21" value="" style="line;strokeWidth=1;fillColor=none;align=left;verticalAlign=middle;spacingTop=-1;spacingLeft=3;spacingRight=3;rotatable=0;labelPosition=right;points=[];portConstraint=eastwest;strokeColor=inherit;" parent="_60M-hrK0tJfBThX2oCK-18" vertex="1">
          <mxGeometry y="78" width="330" height="8" as="geometry" />
        </mxCell>
        <mxCell id="_60M-hrK0tJfBThX2oCK-22" value="+ initialize(initials:, id: nil, git: nil, contact: nil)" style="text;strokeColor=none;fillColor=none;align=left;verticalAlign=top;spacingLeft=4;spacingRight=4;overflow=hidden;rotatable=0;points=[[0,0.5],[1,0.5]];portConstraint=eastwest;whiteSpace=wrap;html=1;fontSize=16;" parent="_60M-hrK0tJfBThX2oCK-18" vertex="1">
          <mxGeometry y="86" width="330" height="26" as="geometry" />
        </mxCell>
        <mxCell id="ckGaQ8mt0c1OZZj6wi1W-112" style="edgeStyle=orthogonalEdgeStyle;rounded=0;orthogonalLoop=1;jettySize=auto;html=1;exitX=0;exitY=0.5;exitDx=0;exitDy=0;dashed=1;strokeWidth=2;startArrow=open;startFill=0;endArrow=none;endFill=0;startSize=15;" parent="_60M-hrK0tJfBThX2oCK-18" source="_60M-hrK0tJfBThX2oCK-23" edge="1">
          <mxGeometry relative="1" as="geometry">
            <mxPoint x="-52.15384615384619" y="-76.46153846153857" as="targetPoint" />
          </mxGeometry>
        </mxCell>
        <mxCell id="_60M-hrK0tJfBThX2oCK-23" value="- new()" style="text;strokeColor=none;fillColor=none;align=left;verticalAlign=top;spacingLeft=4;spacingRight=4;overflow=hidden;rotatable=0;points=[[0,0.5],[1,0.5]];portConstraint=eastwest;whiteSpace=wrap;html=1;fontSize=16;" parent="_60M-hrK0tJfBThX2oCK-18" vertex="1">
          <mxGeometry y="112" width="330" height="26" as="geometry" />
        </mxCell>
        <mxCell id="_60M-hrK0tJfBThX2oCK-24" value="&lt;u&gt;+ from_student(student)&lt;/u&gt;" style="text;strokeColor=none;fillColor=none;align=left;verticalAlign=top;spacingLeft=4;spacingRight=4;overflow=hidden;rotatable=0;points=[[0,0.5],[1,0.5]];portConstraint=eastwest;whiteSpace=wrap;html=1;fontSize=16;" parent="_60M-hrK0tJfBThX2oCK-18" vertex="1">
          <mxGeometry y="138" width="330" height="26" as="geometry" />
        </mxCell>
        <mxCell id="_60M-hrK0tJfBThX2oCK-25" value="&lt;u&gt;+ from_string(id:, string:)&lt;/u&gt;" style="text;strokeColor=none;fillColor=none;align=left;verticalAlign=top;spacingLeft=4;spacingRight=4;overflow=hidden;rotatable=0;points=[[0,0.5],[1,0.5]];portConstraint=eastwest;whiteSpace=wrap;html=1;fontSize=16;" parent="_60M-hrK0tJfBThX2oCK-18" vertex="1">
          <mxGeometry y="164" width="330" height="26" as="geometry" />
        </mxCell>
        <mxCell id="_60M-hrK0tJfBThX2oCK-26" value="&lt;u&gt;- parse_into_string(string)&lt;/u&gt;" style="text;strokeColor=none;fillColor=none;align=left;verticalAlign=top;spacingLeft=4;spacingRight=4;overflow=hidden;rotatable=0;points=[[0,0.5],[1,0.5]];portConstraint=eastwest;whiteSpace=wrap;html=1;fontSize=16;" parent="_60M-hrK0tJfBThX2oCK-18" vertex="1">
          <mxGeometry y="190" width="330" height="26" as="geometry" />
        </mxCell>
        <mxCell id="_60M-hrK0tJfBThX2oCK-27" value="+ to_s" style="text;strokeColor=none;fillColor=none;align=left;verticalAlign=top;spacingLeft=4;spacingRight=4;overflow=hidden;rotatable=0;points=[[0,0.5],[1,0.5]];portConstraint=eastwest;whiteSpace=wrap;html=1;fontSize=16;" parent="_60M-hrK0tJfBThX2oCK-18" vertex="1">
          <mxGeometry y="216" width="330" height="26" as="geometry" />
        </mxCell>
        <mxCell id="ckGaQ8mt0c1OZZj6wi1W-109" style="edgeStyle=orthogonalEdgeStyle;rounded=0;orthogonalLoop=1;jettySize=auto;html=1;exitX=0.5;exitY=0;exitDx=0;exitDy=0;entryX=0.75;entryY=0;entryDx=0;entryDy=0;strokeWidth=2;endArrow=diamondThin;endFill=0;endSize=15;" parent="1" source="_60M-hrK0tJfBThX2oCK-29" target="ckGaQ8mt0c1OZZj6wi1W-88" edge="1">
          <mxGeometry relative="1" as="geometry">
            <Array as="points">
              <mxPoint x="2555" y="-3216" />
              <mxPoint x="1720" y="-3216" />
            </Array>
          </mxGeometry>
        </mxCell>
        <mxCell id="_60M-hrK0tJfBThX2oCK-29" value="Student" style="swimlane;fontStyle=1;align=center;verticalAlign=top;childLayout=stackLayout;horizontal=1;startSize=26;horizontalStack=0;resizeParent=1;resizeParentMax=0;resizeLast=0;collapsible=1;marginBottom=0;whiteSpace=wrap;html=1;fontSize=16;" parent="1" vertex="1">
          <mxGeometry x="2222" y="-2823" width="665" height="736" as="geometry" />
        </mxCell>
        <mxCell id="_60M-hrK0tJfBThX2oCK-30" value="- name: String" style="text;strokeColor=none;fillColor=none;align=left;verticalAlign=top;spacingLeft=4;spacingRight=4;overflow=hidden;rotatable=0;points=[[0,0.5],[1,0.5]];portConstraint=eastwest;whiteSpace=wrap;html=1;fontSize=16;" parent="_60M-hrK0tJfBThX2oCK-29" vertex="1">
          <mxGeometry y="26" width="665" height="26" as="geometry" />
        </mxCell>
        <mxCell id="_60M-hrK0tJfBThX2oCK-31" value="- surname: String" style="text;strokeColor=none;fillColor=none;align=left;verticalAlign=top;spacingLeft=4;spacingRight=4;overflow=hidden;rotatable=0;points=[[0,0.5],[1,0.5]];portConstraint=eastwest;whiteSpace=wrap;html=1;fontSize=16;" parent="_60M-hrK0tJfBThX2oCK-29" vertex="1">
          <mxGeometry y="52" width="665" height="26" as="geometry" />
        </mxCell>
        <mxCell id="_60M-hrK0tJfBThX2oCK-32" value="- patronymic: String" style="text;strokeColor=none;fillColor=none;align=left;verticalAlign=top;spacingLeft=4;spacingRight=4;overflow=hidden;rotatable=0;points=[[0,0.5],[1,0.5]];portConstraint=eastwest;whiteSpace=wrap;html=1;fontSize=16;" parent="_60M-hrK0tJfBThX2oCK-29" vertex="1">
          <mxGeometry y="78" width="665" height="26" as="geometry" />
        </mxCell>
        <mxCell id="_60M-hrK0tJfBThX2oCK-33" value="- phone_num: String?" style="text;strokeColor=none;fillColor=none;align=left;verticalAlign=top;spacingLeft=4;spacingRight=4;overflow=hidden;rotatable=0;points=[[0,0.5],[1,0.5]];portConstraint=eastwest;whiteSpace=wrap;html=1;fontSize=16;" parent="_60M-hrK0tJfBThX2oCK-29" vertex="1">
          <mxGeometry y="104" width="665" height="26" as="geometry" />
        </mxCell>
        <mxCell id="_60M-hrK0tJfBThX2oCK-34" value="- telegram: String?" style="text;strokeColor=none;fillColor=none;align=left;verticalAlign=top;spacingLeft=4;spacingRight=4;overflow=hidden;rotatable=0;points=[[0,0.5],[1,0.5]];portConstraint=eastwest;whiteSpace=wrap;html=1;fontSize=16;" parent="_60M-hrK0tJfBThX2oCK-29" vertex="1">
          <mxGeometry y="130" width="665" height="26" as="geometry" />
        </mxCell>
        <mxCell id="_60M-hrK0tJfBThX2oCK-35" value="- email: String?" style="text;strokeColor=none;fillColor=none;align=left;verticalAlign=top;spacingLeft=4;spacingRight=4;overflow=hidden;rotatable=0;points=[[0,0.5],[1,0.5]];portConstraint=eastwest;whiteSpace=wrap;html=1;fontSize=16;" parent="_60M-hrK0tJfBThX2oCK-29" vertex="1">
          <mxGeometry y="156" width="665" height="26" as="geometry" />
        </mxCell>
        <mxCell id="_60M-hrK0tJfBThX2oCK-36" value="- date_of_birth: String?" style="text;strokeColor=none;fillColor=none;align=left;verticalAlign=top;spacingLeft=4;spacingRight=4;overflow=hidden;rotatable=0;points=[[0,0.5],[1,0.5]];portConstraint=eastwest;whiteSpace=wrap;html=1;fontSize=16;" parent="_60M-hrK0tJfBThX2oCK-29" vertex="1">
          <mxGeometry y="182" width="665" height="26" as="geometry" />
        </mxCell>
        <mxCell id="_60M-hrK0tJfBThX2oCK-37" value="" style="line;strokeWidth=1;fillColor=none;align=left;verticalAlign=middle;spacingTop=-1;spacingLeft=3;spacingRight=3;rotatable=0;labelPosition=right;points=[];portConstraint=eastwest;strokeColor=inherit;" parent="_60M-hrK0tJfBThX2oCK-29" vertex="1">
          <mxGeometry y="208" width="665" height="8" as="geometry" />
        </mxCell>
        <mxCell id="_60M-hrK0tJfBThX2oCK-38" value="+ initialize(surname:, name:, patronymic:, id:nil, phone_num:nil, telegram:nil, email:nil, git:nil)" style="text;strokeColor=none;fillColor=none;align=left;verticalAlign=top;spacingLeft=4;spacingRight=4;overflow=hidden;rotatable=0;points=[[0,0.5],[1,0.5]];portConstraint=eastwest;whiteSpace=wrap;html=1;fontSize=16;" parent="_60M-hrK0tJfBThX2oCK-29" vertex="1">
          <mxGeometry y="216" width="665" height="26" as="geometry" />
        </mxCell>
        <mxCell id="_60M-hrK0tJfBThX2oCK-39" value="+ name=(name)" style="text;strokeColor=none;fillColor=none;align=left;verticalAlign=top;spacingLeft=4;spacingRight=4;overflow=hidden;rotatable=0;points=[[0,0.5],[1,0.5]];portConstraint=eastwest;whiteSpace=wrap;html=1;fontSize=16;" parent="_60M-hrK0tJfBThX2oCK-29" vertex="1">
          <mxGeometry y="242" width="665" height="26" as="geometry" />
        </mxCell>
        <mxCell id="_60M-hrK0tJfBThX2oCK-40" value="+ surname=(surname)" style="text;strokeColor=none;fillColor=none;align=left;verticalAlign=top;spacingLeft=4;spacingRight=4;overflow=hidden;rotatable=0;points=[[0,0.5],[1,0.5]];portConstraint=eastwest;whiteSpace=wrap;html=1;fontSize=16;" parent="_60M-hrK0tJfBThX2oCK-29" vertex="1">
          <mxGeometry y="268" width="665" height="26" as="geometry" />
        </mxCell>
        <mxCell id="_60M-hrK0tJfBThX2oCK-41" value="+ patronymic=(patronymic)" style="text;strokeColor=none;fillColor=none;align=left;verticalAlign=top;spacingLeft=4;spacingRight=4;overflow=hidden;rotatable=0;points=[[0,0.5],[1,0.5]];portConstraint=eastwest;whiteSpace=wrap;html=1;fontSize=16;" parent="_60M-hrK0tJfBThX2oCK-29" vertex="1">
          <mxGeometry y="294" width="665" height="26" as="geometry" />
        </mxCell>
        <mxCell id="_60M-hrK0tJfBThX2oCK-42" value="+ id=(id)" style="text;strokeColor=none;fillColor=none;align=left;verticalAlign=top;spacingLeft=4;spacingRight=4;overflow=hidden;rotatable=0;points=[[0,0.5],[1,0.5]];portConstraint=eastwest;whiteSpace=wrap;html=1;fontSize=16;" parent="_60M-hrK0tJfBThX2oCK-29" vertex="1">
          <mxGeometry y="320" width="665" height="26" as="geometry" />
        </mxCell>
        <mxCell id="_60M-hrK0tJfBThX2oCK-43" value="+ git=(git)" style="text;strokeColor=none;fillColor=none;align=left;verticalAlign=top;spacingLeft=4;spacingRight=4;overflow=hidden;rotatable=0;points=[[0,0.5],[1,0.5]];portConstraint=eastwest;whiteSpace=wrap;html=1;fontSize=16;" parent="_60M-hrK0tJfBThX2oCK-29" vertex="1">
          <mxGeometry y="346" width="665" height="26" as="geometry" />
        </mxCell>
        <mxCell id="_60M-hrK0tJfBThX2oCK-44" value="+ set_contacts(phone_num:nil, telegram:nil, email:nil)" style="text;strokeColor=none;fillColor=none;align=left;verticalAlign=top;spacingLeft=4;spacingRight=4;overflow=hidden;rotatable=0;points=[[0,0.5],[1,0.5]];portConstraint=eastwest;whiteSpace=wrap;html=1;fontSize=16;" parent="_60M-hrK0tJfBThX2oCK-29" vertex="1">
          <mxGeometry y="372" width="665" height="26" as="geometry" />
        </mxCell>
        <mxCell id="_60M-hrK0tJfBThX2oCK-45" value="+ date_of_birth=(date_of_birth)" style="text;strokeColor=none;fillColor=none;align=left;verticalAlign=top;spacingLeft=4;spacingRight=4;overflow=hidden;rotatable=0;points=[[0,0.5],[1,0.5]];portConstraint=eastwest;whiteSpace=wrap;html=1;fontSize=16;" parent="_60M-hrK0tJfBThX2oCK-29" vertex="1">
          <mxGeometry y="398" width="665" height="26" as="geometry" />
        </mxCell>
        <mxCell id="_60M-hrK0tJfBThX2oCK-46" value="+ is_git?" style="text;strokeColor=none;fillColor=none;align=left;verticalAlign=top;spacingLeft=4;spacingRight=4;overflow=hidden;rotatable=0;points=[[0,0.5],[1,0.5]];portConstraint=eastwest;whiteSpace=wrap;html=1;fontSize=16;" parent="_60M-hrK0tJfBThX2oCK-29" vertex="1">
          <mxGeometry y="424" width="665" height="26" as="geometry" />
        </mxCell>
        <mxCell id="_60M-hrK0tJfBThX2oCK-47" value="+ is_contacts?" style="text;strokeColor=none;fillColor=none;align=left;verticalAlign=top;spacingLeft=4;spacingRight=4;overflow=hidden;rotatable=0;points=[[0,0.5],[1,0.5]];portConstraint=eastwest;whiteSpace=wrap;html=1;fontSize=16;" parent="_60M-hrK0tJfBThX2oCK-29" vertex="1">
          <mxGeometry y="450" width="665" height="26" as="geometry" />
        </mxCell>
        <mxCell id="_60M-hrK0tJfBThX2oCK-48" value="+ to_s()" style="text;strokeColor=none;fillColor=none;align=left;verticalAlign=top;spacingLeft=4;spacingRight=4;overflow=hidden;rotatable=0;points=[[0,0.5],[1,0.5]];portConstraint=eastwest;whiteSpace=wrap;html=1;fontSize=16;" parent="_60M-hrK0tJfBThX2oCK-29" vertex="1">
          <mxGeometry y="476" width="665" height="26" as="geometry" />
        </mxCell>
        <mxCell id="_60M-hrK0tJfBThX2oCK-49" value="+ get_info()" style="text;strokeColor=none;fillColor=none;align=left;verticalAlign=top;spacingLeft=4;spacingRight=4;overflow=hidden;rotatable=0;points=[[0,0.5],[1,0.5]];portConstraint=eastwest;whiteSpace=wrap;html=1;fontSize=16;" parent="_60M-hrK0tJfBThX2oCK-29" vertex="1">
          <mxGeometry y="502" width="665" height="26" as="geometry" />
        </mxCell>
        <mxCell id="_60M-hrK0tJfBThX2oCK-50" value="+ name: attr_reader" style="text;strokeColor=none;fillColor=none;align=left;verticalAlign=top;spacingLeft=4;spacingRight=4;overflow=hidden;rotatable=0;points=[[0,0.5],[1,0.5]];portConstraint=eastwest;whiteSpace=wrap;html=1;fontSize=16;" parent="_60M-hrK0tJfBThX2oCK-29" vertex="1">
          <mxGeometry y="528" width="665" height="26" as="geometry" />
        </mxCell>
        <mxCell id="_60M-hrK0tJfBThX2oCK-51" value="+ surname: attr_reader" style="text;strokeColor=none;fillColor=none;align=left;verticalAlign=top;spacingLeft=4;spacingRight=4;overflow=hidden;rotatable=0;points=[[0,0.5],[1,0.5]];portConstraint=eastwest;whiteSpace=wrap;html=1;fontSize=16;" parent="_60M-hrK0tJfBThX2oCK-29" vertex="1">
          <mxGeometry y="554" width="665" height="26" as="geometry" />
        </mxCell>
        <mxCell id="_60M-hrK0tJfBThX2oCK-52" value="+ patronymic: attr_reader" style="text;strokeColor=none;fillColor=none;align=left;verticalAlign=top;spacingLeft=4;spacingRight=4;overflow=hidden;rotatable=0;points=[[0,0.5],[1,0.5]];portConstraint=eastwest;whiteSpace=wrap;html=1;fontSize=16;" parent="_60M-hrK0tJfBThX2oCK-29" vertex="1">
          <mxGeometry y="580" width="665" height="26" as="geometry" />
        </mxCell>
        <mxCell id="_60M-hrK0tJfBThX2oCK-53" value="+ phone_num: attr_reader" style="text;strokeColor=none;fillColor=none;align=left;verticalAlign=top;spacingLeft=4;spacingRight=4;overflow=hidden;rotatable=0;points=[[0,0.5],[1,0.5]];portConstraint=eastwest;whiteSpace=wrap;html=1;fontSize=16;" parent="_60M-hrK0tJfBThX2oCK-29" vertex="1">
          <mxGeometry y="606" width="665" height="26" as="geometry" />
        </mxCell>
        <mxCell id="_60M-hrK0tJfBThX2oCK-54" value="+ telegram: attr_reader" style="text;strokeColor=none;fillColor=none;align=left;verticalAlign=top;spacingLeft=4;spacingRight=4;overflow=hidden;rotatable=0;points=[[0,0.5],[1,0.5]];portConstraint=eastwest;whiteSpace=wrap;html=1;fontSize=16;" parent="_60M-hrK0tJfBThX2oCK-29" vertex="1">
          <mxGeometry y="632" width="665" height="26" as="geometry" />
        </mxCell>
        <mxCell id="_60M-hrK0tJfBThX2oCK-55" value="+ email: attr_reader" style="text;strokeColor=none;fillColor=none;align=left;verticalAlign=top;spacingLeft=4;spacingRight=4;overflow=hidden;rotatable=0;points=[[0,0.5],[1,0.5]];portConstraint=eastwest;whiteSpace=wrap;html=1;fontSize=16;" parent="_60M-hrK0tJfBThX2oCK-29" vertex="1">
          <mxGeometry y="658" width="665" height="26" as="geometry" />
        </mxCell>
        <mxCell id="_60M-hrK0tJfBThX2oCK-56" value="+ &amp;lt;=&amp;gt;(other)" style="text;strokeColor=none;fillColor=none;align=left;verticalAlign=top;spacingLeft=4;spacingRight=4;overflow=hidden;rotatable=0;points=[[0,0.5],[1,0.5]];portConstraint=eastwest;whiteSpace=wrap;html=1;fontSize=16;" parent="_60M-hrK0tJfBThX2oCK-29" vertex="1">
          <mxGeometry y="684" width="665" height="26" as="geometry" />
        </mxCell>
        <mxCell id="7yRF4xjfkNmWZK7dUMPs-61" value="+ ==(other)" style="text;strokeColor=none;fillColor=none;align=left;verticalAlign=top;spacingLeft=4;spacingRight=4;overflow=hidden;rotatable=0;points=[[0,0.5],[1,0.5]];portConstraint=eastwest;whiteSpace=wrap;html=1;fontSize=16;" vertex="1" parent="_60M-hrK0tJfBThX2oCK-29">
          <mxGeometry y="710" width="665" height="26" as="geometry" />
        </mxCell>
        <mxCell id="ckGaQ8mt0c1OZZj6wi1W-38" style="edgeStyle=orthogonalEdgeStyle;rounded=0;orthogonalLoop=1;jettySize=auto;html=1;entryX=1;entryY=0.5;entryDx=0;entryDy=0;endArrow=block;endFill=0;endSize=15;strokeWidth=2;" parent="1" source="ckGaQ8mt0c1OZZj6wi1W-4" target="ckGaQ8mt0c1OZZj6wi1W-21" edge="1">
          <mxGeometry relative="1" as="geometry">
            <Array as="points">
              <mxPoint x="1490" y="-2422" />
              <mxPoint x="1490" y="-2422" />
            </Array>
          </mxGeometry>
        </mxCell>
        <mxCell id="ckGaQ8mt0c1OZZj6wi1W-4" value="DataListStudentShort" style="swimlane;fontStyle=1;align=center;verticalAlign=top;childLayout=stackLayout;horizontal=1;startSize=26;horizontalStack=0;resizeParent=1;resizeParentMax=0;resizeLast=0;collapsible=1;marginBottom=0;whiteSpace=wrap;html=1;fontSize=16;" parent="1" vertex="1">
          <mxGeometry x="1533" y="-2473" width="330" height="112" as="geometry" />
        </mxCell>
        <mxCell id="ckGaQ8mt0c1OZZj6wi1W-5" value="&lt;div&gt;&lt;br&gt;&lt;/div&gt;&lt;div&gt;&lt;br&gt;&lt;/div&gt;" style="text;strokeColor=none;fillColor=none;align=left;verticalAlign=top;spacingLeft=4;spacingRight=4;overflow=hidden;rotatable=0;points=[[0,0.5],[1,0.5]];portConstraint=eastwest;whiteSpace=wrap;html=1;fontSize=16;" parent="ckGaQ8mt0c1OZZj6wi1W-4" vertex="1">
          <mxGeometry y="26" width="330" height="26" as="geometry" />
        </mxCell>
        <mxCell id="ckGaQ8mt0c1OZZj6wi1W-7" value="" style="line;strokeWidth=1;fillColor=none;align=left;verticalAlign=middle;spacingTop=-1;spacingLeft=3;spacingRight=3;rotatable=0;labelPosition=right;points=[];portConstraint=eastwest;strokeColor=inherit;" parent="ckGaQ8mt0c1OZZj6wi1W-4" vertex="1">
          <mxGeometry y="52" width="330" height="8" as="geometry" />
        </mxCell>
        <mxCell id="ckGaQ8mt0c1OZZj6wi1W-8" value="- base_names()" style="text;strokeColor=none;fillColor=none;align=left;verticalAlign=top;spacingLeft=4;spacingRight=4;overflow=hidden;rotatable=0;points=[[0,0.5],[1,0.5]];portConstraint=eastwest;whiteSpace=wrap;html=1;fontSize=16;" parent="ckGaQ8mt0c1OZZj6wi1W-4" vertex="1">
          <mxGeometry y="60" width="330" height="26" as="geometry" />
        </mxCell>
        <mxCell id="ckGaQ8mt0c1OZZj6wi1W-9" value="- build_row(StudentShort, Integer)" style="text;strokeColor=none;fillColor=none;align=left;verticalAlign=top;spacingLeft=4;spacingRight=4;overflow=hidden;rotatable=0;points=[[0,0.5],[1,0.5]];portConstraint=eastwest;whiteSpace=wrap;html=1;fontSize=16;" parent="ckGaQ8mt0c1OZZj6wi1W-4" vertex="1">
          <mxGeometry y="86" width="330" height="26" as="geometry" />
        </mxCell>
        <mxCell id="ckGaQ8mt0c1OZZj6wi1W-14" value="DataList" style="swimlane;fontStyle=1;align=center;verticalAlign=top;childLayout=stackLayout;horizontal=1;startSize=26;horizontalStack=0;resizeParent=1;resizeParentMax=0;resizeLast=0;collapsible=1;marginBottom=0;whiteSpace=wrap;html=1;fontSize=16;" parent="1" vertex="1">
          <mxGeometry x="1025" y="-2677" width="330" height="580" as="geometry" />
        </mxCell>
        <mxCell id="ckGaQ8mt0c1OZZj6wi1W-15" value="- data: Object[]&lt;span style=&quot;color: rgba(0, 0, 0, 0); font-family: monospace; font-size: 0px; text-wrap-mode: nowrap;&quot;&gt;%3CmxGraphModel%3E%3Croot%3E%3CmxCell%20id%3D%220%22%2F%3E%3CmxCell%20id%3D%221%22%20parent%3D%220%22%2F%3E%3CmxCell%20id%3D%222%22%20value%3D%22DataListStudentShort%22%20style%3D%22swimlane%3BfontStyle%3D1%3Balign%3Dcenter%3BverticalAlign%3Dtop%3BchildLayout%3DstackLayout%3Bhorizontal%3D1%3BstartSize%3D26%3BhorizontalStack%3D0%3BresizeParent%3D1%3BresizeParentMax%3D0%3BresizeLast%3D0%3Bcollapsible%3D1%3BmarginBottom%3D0%3BwhiteSpace%3Dwrap%3Bhtml%3D1%3BfontSize%3D16%3B%22%20vertex%3D%221%22%20parent%3D%221%22%3E%3CmxGeometry%20x%3D%22780%22%20y%3D%22-1600%22%20width%3D%22330%22%20height%3D%22112%22%20as%3D%22geometry%22%2F%3E%3C%2FmxCell%3E%3CmxCell%20id%3D%223%22%20value%3D%22%26lt%3Bdiv%26gt%3B%26lt%3Bbr%26gt%3B%26lt%3B%2Fdiv%26gt%3B%26lt%3Bdiv%26gt%3B%26lt%3Bbr%26gt%3B%26lt%3B%2Fdiv%26gt%3B%22%20style%3D%22text%3BstrokeColor%3Dnone%3BfillColor%3Dnone%3Balign%3Dleft%3BverticalAlign%3Dtop%3BspacingLeft%3D4%3BspacingRight%3D4%3Boverflow%3Dhidden%3Brotatable%3D0%3Bpoints%3D%5B%5B0%2C0.5%5D%2C%5B1%2C0.5%5D%5D%3BportConstraint%3Deastwest%3BwhiteSpace%3Dwrap%3Bhtml%3D1%3BfontSize%3D16%3B%22%20vertex%3D%221%22%20parent%3D%222%22%3E%3CmxGeometry%20y%3D%2226%22%20width%3D%22330%22%20height%3D%2226%22%20as%3D%22geometry%22%2F%3E%3C%2FmxCell%3E%3CmxCell%20id%3D%224%22%20value%3D%22%22%20style%3D%22line%3BstrokeWidth%3D1%3BfillColor%3Dnone%3Balign%3Dleft%3BverticalAlign%3Dmiddle%3BspacingTop%3D-1%3BspacingLeft%3D3%3BspacingRight%3D3%3Brotatable%3D0%3BlabelPosition%3Dright%3Bpoints%3D%5B%5D%3BportConstraint%3Deastwest%3BstrokeColor%3Dinherit%3B%22%20vertex%3D%221%22%20parent%3D%222%22%3E%3CmxGeometry%20y%3D%2252%22%20width%3D%22330%22%20height%3D%228%22%20as%3D%22geometry%22%2F%3E%3C%2FmxCell%3E%3CmxCell%20id%3D%225%22%20value%3D%22-%20base_names()%22%20style%3D%22text%3BstrokeColor%3Dnone%3BfillColor%3Dnone%3Balign%3Dleft%3BverticalAlign%3Dtop%3BspacingLeft%3D4%3BspacingRight%3D4%3Boverflow%3Dhidden%3Brotatable%3D0%3Bpoints%3D%5B%5B0%2C0.5%5D%2C%5B1%2C0.5%5D%5D%3BportConstraint%3Deastwest%3BwhiteSpace%3Dwrap%3Bhtml%3D1%3BfontSize%3D16%3B%22%20vertex%3D%221%22%20parent%3D%222%22%3E%3CmxGeometry%20y%3D%2260%22%20width%3D%22330%22%20height%3D%2226%22%20as%3D%22geometry%22%2F%3E%3C%2FmxCell%3E%3CmxCell%20id%3D%226%22%20value%3D%22-%20build_row(student_short%2C%20index)%22%20style%3D%22text%3BstrokeColor%3Dnone%3BfillColor%3Dnone%3Balign%3Dleft%3BverticalAlign%3Dtop%3BspacingLeft%3D4%3BspacingRight%3D4%3Boverflow%3Dhidden%3Brotatable%3D0%3Bpoints%3D%5B%5B0%2C0.5%5D%2C%5B1%2C0.5%5D%5D%3BportConstraint%3Deastwest%3BwhiteSpace%3Dwrap%3Bhtml%3D1%3BfontSize%3D16%3B%22%20vertex%3D%221%22%20parent%3D%222%22%3E%3CmxGeometry%20y%3D%2286%22%20width%3D%22330%22%20height%3D%2226%22%20as%3D%22geometry%22%2F%3E%3C%2FmxCell%3E%3C%2Froot%3E%3C%2FmxGraphModel%3E[]{}&lt;/span&gt;" style="text;strokeColor=none;fillColor=none;align=left;verticalAlign=top;spacingLeft=4;spacingRight=4;overflow=hidden;rotatable=0;points=[[0,0.5],[1,0.5]];portConstraint=eastwest;whiteSpace=wrap;html=1;fontSize=16;" parent="ckGaQ8mt0c1OZZj6wi1W-14" vertex="1">
          <mxGeometry y="26" width="330" height="26" as="geometry" />
        </mxCell>
        <mxCell id="ckGaQ8mt0c1OZZj6wi1W-19" value="- selected: Integer[]&lt;div&gt;&lt;span style=&quot;color: rgba(0, 0, 0, 0); font-family: monospace; font-size: 0px; text-wrap-mode: nowrap;&quot;&gt;&lt;br&gt;&lt;/span&gt;&lt;/div&gt;&lt;div&gt;&lt;span style=&quot;color: rgba(0, 0, 0, 0); font-family: monospace; font-size: 0px; text-wrap-mode: nowrap;&quot;&gt;%3CmxGraphModel%3E%3Croot%3E%3CmxCell%20id%3D%220%22%2F%3E%3CmxCell%20id%3D%221%22%20parent%3D%220%22%2F%3E%3CmxCell%20id%3D%222%22%20value%3D%22DataListStudentShort%22%20style%3D%22swimlane%3BfontStyle%3D1%3Balign%3Dcenter%3BverticalAlign%3Dtop%3BchildLayout%3DstackLayout%3Bhorizontal%3D1%3BstartSize%3D26%3BhorizontalStack%3D0%3BresizeParent%3D1%3BresizeParentMax%3D0%3BresizeLast%3D0%3Bcollapsible%3D1%3BmarginBottom%3D0%3BwhiteSpace%3Dwrap%3Bhtml%3D1%3BfontSize%3D16%3B%22%20vertex%3D%221%22%20parent%3D%221%22%3E%3CmxGeometry%20x%3D%22780%22%20y%3D%22-1600%22%20width%3D%22330%22%20height%3D%22112%22%20as%3D%22geometry%22%2F%3E%3C%2FmxCell%3E%3CmxCell%20id%3D%223%22%20value%3D%22%26lt%3Bdiv%26gt%3B%26lt%3Bbr%26gt%3B%26lt%3B%2Fdiv%26gt%3B%26lt%3Bdiv%26gt%3B%26lt%3Bbr%26gt%3B%26lt%3B%2Fdiv%26gt%3B%22%20style%3D%22text%3BstrokeColor%3Dnone%3BfillColor%3Dnone%3Balign%3Dleft%3BverticalAlign%3Dtop%3BspacingLeft%3D4%3BspacingRight%3D4%3Boverflow%3Dhidden%3Brotatable%3D0%3Bpoints%3D%5B%5B0%2C0.5%5D%2C%5B1%2C0.5%5D%5D%3BportConstraint%3Deastwest%3BwhiteSpace%3Dwrap%3Bhtml%3D1%3BfontSize%3D16%3B%22%20vertex%3D%221%22%20parent%3D%222%22%3E%3CmxGeometry%20y%3D%2226%22%20width%3D%22330%22%20height%3D%2226%22%20as%3D%22geometry%22%2F%3E%3C%2FmxCell%3E%3CmxCell%20id%3D%224%22%20value%3D%22%22%20style%3D%22line%3BstrokeWidth%3D1%3BfillColor%3Dnone%3Balign%3Dleft%3BverticalAlign%3Dmiddle%3BspacingTop%3D-1%3BspacingLeft%3D3%3BspacingRight%3D3%3Brotatable%3D0%3BlabelPosition%3Dright%3Bpoints%3D%5B%5D%3BportConstraint%3Deastwest%3BstrokeColor%3Dinherit%3B%22%20vertex%3D%221%22%20parent%3D%222%22%3E%3CmxGeometry%20y%3D%2252%22%20width%3D%22330%22%20height%3D%228%22%20as%3D%22geometry%22%2F%3E%3C%2FmxCell%3E%3CmxCell%20id%3D%225%22%20value%3D%22-%20base_names()%22%20style%3D%22text%3BstrokeColor%3Dnone%3BfillColor%3Dnone%3Balign%3Dleft%3BverticalAlign%3Dtop%3BspacingLeft%3D4%3BspacingRight%3D4%3Boverflow%3Dhidden%3Brotatable%3D0%3Bpoints%3D%5B%5B0%2C0.5%5D%2C%5B1%2C0.5%5D%5D%3BportConstraint%3Deastwest%3BwhiteSpace%3Dwrap%3Bhtml%3D1%3BfontSize%3D16%3B%22%20vertex%3D%221%22%20parent%3D%222%22%3E%3CmxGeometry%20y%3D%2260%22%20width%3D%22330%22%20height%3D%2226%22%20as%3D%22geometry%22%2F%3E%3C%2FmxCell%3E%3CmxCell%20id%3D%226%22%20value%3D%22-%20build_row(student_short%2C%20index)%22%20style%3D%22text%3BstrokeColor%3Dnone%3BfillColor%3Dnone%3Balign%3Dleft%3BverticalAlign%3Dtop%3BspacingLeft%3D4%3BspacingRight%3D4%3Boverflow%3Dhidden%3Brotatable%3D0%3Bpoints%3D%5B%5B0%2C0.5%5D%2C%5B1%2C0.5%5D%5D%3BportConstraint%3Deastwest%3BwhiteSpace%3Dwrap%3Bhtml%3D1%3BfontSize%3D16%3B%22%20vertex%3D%221%22%20parent%3D%222%22%3E%3CmxGeometry%20y%3D%2286%22%20width%3D%22330%22%20height%3D%2226%22%20as%3D%22geometry%22%2F%3E%3C%2FmxCell%3E%3C%2Froot%3E%3C%2FmxGraphModel%3E&lt;/span&gt;&lt;/div&gt;" style="text;strokeColor=none;fillColor=none;align=left;verticalAlign=top;spacingLeft=4;spacingRight=4;overflow=hidden;rotatable=0;points=[[0,0.5],[1,0.5]];portConstraint=eastwest;whiteSpace=wrap;html=1;fontSize=16;" parent="ckGaQ8mt0c1OZZj6wi1W-14" vertex="1">
          <mxGeometry y="52" width="330" height="26" as="geometry" />
        </mxCell>
        <mxCell id="7yRF4xjfkNmWZK7dUMPs-50" value="- observers: StudentListView[]" style="text;strokeColor=none;fillColor=none;align=left;verticalAlign=top;spacingLeft=4;spacingRight=4;overflow=hidden;rotatable=0;points=[[0,0.5],[1,0.5]];portConstraint=eastwest;whiteSpace=wrap;html=1;fontSize=16;" vertex="1" parent="ckGaQ8mt0c1OZZj6wi1W-14">
          <mxGeometry y="78" width="330" height="26" as="geometry" />
        </mxCell>
        <mxCell id="7yRF4xjfkNmWZK7dUMPs-51" value="- count: Integer" style="text;strokeColor=none;fillColor=none;align=left;verticalAlign=top;spacingLeft=4;spacingRight=4;overflow=hidden;rotatable=0;points=[[0,0.5],[1,0.5]];portConstraint=eastwest;whiteSpace=wrap;html=1;fontSize=16;" vertex="1" parent="ckGaQ8mt0c1OZZj6wi1W-14">
          <mxGeometry y="104" width="330" height="26" as="geometry" />
        </mxCell>
        <mxCell id="7yRF4xjfkNmWZK7dUMPs-52" value="- offset: integer" style="text;strokeColor=none;fillColor=none;align=left;verticalAlign=top;spacingLeft=4;spacingRight=4;overflow=hidden;rotatable=0;points=[[0,0.5],[1,0.5]];portConstraint=eastwest;whiteSpace=wrap;html=1;fontSize=16;" vertex="1" parent="ckGaQ8mt0c1OZZj6wi1W-14">
          <mxGeometry y="130" width="330" height="26" as="geometry" />
        </mxCell>
        <mxCell id="ckGaQ8mt0c1OZZj6wi1W-16" value="" style="line;strokeWidth=1;fillColor=none;align=left;verticalAlign=middle;spacingTop=-1;spacingLeft=3;spacingRight=3;rotatable=0;labelPosition=right;points=[];portConstraint=eastwest;strokeColor=inherit;" parent="ckGaQ8mt0c1OZZj6wi1W-14" vertex="1">
          <mxGeometry y="156" width="330" height="8" as="geometry" />
        </mxCell>
        <mxCell id="ckGaQ8mt0c1OZZj6wi1W-17" value="+ initialize(data, offset = 0)" style="text;strokeColor=none;fillColor=none;align=left;verticalAlign=top;spacingLeft=4;spacingRight=4;overflow=hidden;rotatable=0;points=[[0,0.5],[1,0.5]];portConstraint=eastwest;whiteSpace=wrap;html=1;fontSize=16;" parent="ckGaQ8mt0c1OZZj6wi1W-14" vertex="1">
          <mxGeometry y="164" width="330" height="26" as="geometry" />
        </mxCell>
        <mxCell id="ckGaQ8mt0c1OZZj6wi1W-18" value="+ select(number)" style="text;strokeColor=none;fillColor=none;align=left;verticalAlign=top;spacingLeft=4;spacingRight=4;overflow=hidden;rotatable=0;points=[[0,0.5],[1,0.5]];portConstraint=eastwest;whiteSpace=wrap;html=1;fontSize=16;" parent="ckGaQ8mt0c1OZZj6wi1W-14" vertex="1">
          <mxGeometry y="190" width="330" height="26" as="geometry" />
        </mxCell>
        <mxCell id="ckGaQ8mt0c1OZZj6wi1W-20" value="+ get_selected()" style="text;strokeColor=none;fillColor=none;align=left;verticalAlign=top;spacingLeft=4;spacingRight=4;overflow=hidden;rotatable=0;points=[[0,0.5],[1,0.5]];portConstraint=eastwest;whiteSpace=wrap;html=1;fontSize=16;" parent="ckGaQ8mt0c1OZZj6wi1W-14" vertex="1">
          <mxGeometry y="216" width="330" height="26" as="geometry" />
        </mxCell>
        <mxCell id="ckGaQ8mt0c1OZZj6wi1W-21" value="+ get_names()" style="text;strokeColor=none;fillColor=none;align=left;verticalAlign=top;spacingLeft=4;spacingRight=4;overflow=hidden;rotatable=0;points=[[0,0.5],[1,0.5]];portConstraint=eastwest;whiteSpace=wrap;html=1;fontSize=16;" parent="ckGaQ8mt0c1OZZj6wi1W-14" vertex="1">
          <mxGeometry y="242" width="330" height="26" as="geometry" />
        </mxCell>
        <mxCell id="ckGaQ8mt0c1OZZj6wi1W-22" value="+ get_data()" style="text;strokeColor=none;fillColor=none;align=left;verticalAlign=top;spacingLeft=4;spacingRight=4;overflow=hidden;rotatable=0;points=[[0,0.5],[1,0.5]];portConstraint=eastwest;whiteSpace=wrap;html=1;fontSize=16;" parent="ckGaQ8mt0c1OZZj6wi1W-14" vertex="1">
          <mxGeometry y="268" width="330" height="26" as="geometry" />
        </mxCell>
        <mxCell id="ckGaQ8mt0c1OZZj6wi1W-23" value="+ data=(data)&lt;span style=&quot;color: rgba(0, 0, 0, 0); font-family: monospace; font-size: 0px; text-wrap-mode: nowrap;&quot;&gt;%3CmxGraphModel%3E%3Croot%3E%3CmxCell%20id%3D%220%22%2F%3E%3CmxCell%20id%3D%221%22%20parent%3D%220%22%2F%3E%3CmxCell%20id%3D%222%22%20value%3D%22-%20base_names()%22%20style%3D%22text%3BstrokeColor%3Dnone%3BfillColor%3Dnone%3Balign%3Dleft%3BverticalAlign%3Dtop%3BspacingLeft%3D4%3BspacingRight%3D4%3Boverflow%3Dhidden%3Brotatable%3D0%3Bpoints%3D%5B%5B0%2C0.5%5D%2C%5B1%2C0.5%5D%5D%3BportConstraint%3Deastwest%3BwhiteSpace%3Dwrap%3Bhtml%3D1%3BfontSize%3D16%3B%22%20vertex%3D%221%22%20parent%3D%221%22%3E%3CmxGeometry%20x%3D%22360%22%20y%3D%22-1514%22%20width%3D%22330%22%20height%3D%2226%22%20as%3D%22geometry%22%2F%3E%3C%2FmxCell%3E%3C%2Froot%3E%3C%2FmxGraphModel%3E&lt;/span&gt;" style="text;strokeColor=none;fillColor=none;align=left;verticalAlign=top;spacingLeft=4;spacingRight=4;overflow=hidden;rotatable=0;points=[[0,0.5],[1,0.5]];portConstraint=eastwest;whiteSpace=wrap;html=1;fontSize=16;" parent="ckGaQ8mt0c1OZZj6wi1W-14" vertex="1">
          <mxGeometry y="294" width="330" height="26" as="geometry" />
        </mxCell>
        <mxCell id="7yRF4xjfkNmWZK7dUMPs-53" value="+ offset=(offset)" style="text;strokeColor=none;fillColor=none;align=left;verticalAlign=top;spacingLeft=4;spacingRight=4;overflow=hidden;rotatable=0;points=[[0,0.5],[1,0.5]];portConstraint=eastwest;whiteSpace=wrap;html=1;fontSize=16;" vertex="1" parent="ckGaQ8mt0c1OZZj6wi1W-14">
          <mxGeometry y="320" width="330" height="26" as="geometry" />
        </mxCell>
        <mxCell id="7yRF4xjfkNmWZK7dUMPs-54" value="+ notify()" style="text;strokeColor=none;fillColor=none;align=left;verticalAlign=top;spacingLeft=4;spacingRight=4;overflow=hidden;rotatable=0;points=[[0,0.5],[1,0.5]];portConstraint=eastwest;whiteSpace=wrap;html=1;fontSize=16;" vertex="1" parent="ckGaQ8mt0c1OZZj6wi1W-14">
          <mxGeometry y="346" width="330" height="26" as="geometry" />
        </mxCell>
        <mxCell id="7yRF4xjfkNmWZK7dUMPs-55" value="+ add_observer(observer)" style="text;strokeColor=none;fillColor=none;align=left;verticalAlign=top;spacingLeft=4;spacingRight=4;overflow=hidden;rotatable=0;points=[[0,0.5],[1,0.5]];portConstraint=eastwest;whiteSpace=wrap;html=1;fontSize=16;" vertex="1" parent="ckGaQ8mt0c1OZZj6wi1W-14">
          <mxGeometry y="372" width="330" height="26" as="geometry" />
        </mxCell>
        <mxCell id="ckGaQ8mt0c1OZZj6wi1W-24" value="&lt;i&gt;- base_names()&lt;/i&gt;&lt;span style=&quot;color: rgba(0, 0, 0, 0); font-family: monospace; font-size: 0px; text-wrap-mode: nowrap;&quot;&gt;%3CmxGraphModel%3E%3Croot%3E%3CmxCell%20id%3D%220%22%2F%3E%3CmxCell%20id%3D%221%22%20parent%3D%220%22%2F%3E%3CmxCell%20id%3D%222%22%20value%3D%22-%20base_names()%22%20style%3D%22text%3BstrokeColor%3Dnone%3BfillColor%3Dnone%3Balign%3Dleft%3BverticalAlign%3Dtop%3BspacingLeft%3D4%3BspacingRight%3D4%3Boverflow%3Dhidden%3Brotatable%3D0%3Bpoints%3D%5B%5B0%2C0.5%5D%2C%5B1%2C0.5%5D%5D%3BportConstraint%3Deastwest%3BwhiteSpace%3Dwrap%3Bhtml%3D1%3BfontSize%3D16%3B%22%20vertex%3D%221%22%20parent%3D%221%22%3E%3CmxGeometry%20x%3D%22360%22%20y%3D%22-1514%22%20width%3D%22330%22%20height%3D%2226%22%20as%3D%22geometry%22%2F%3E%3C%2FmxCell%3E%3C%2Froot%3E%3C%2FmxGraphModel%3E()&lt;/span&gt;" style="text;strokeColor=none;fillColor=none;align=left;verticalAlign=top;spacingLeft=4;spacingRight=4;overflow=hidden;rotatable=0;points=[[0,0.5],[1,0.5]];portConstraint=eastwest;whiteSpace=wrap;html=1;fontSize=16;" parent="ckGaQ8mt0c1OZZj6wi1W-14" vertex="1">
          <mxGeometry y="398" width="330" height="26" as="geometry" />
        </mxCell>
        <mxCell id="ckGaQ8mt0c1OZZj6wi1W-25" value="&lt;i&gt;- build_row()&lt;/i&gt;" style="text;strokeColor=none;fillColor=none;align=left;verticalAlign=top;spacingLeft=4;spacingRight=4;overflow=hidden;rotatable=0;points=[[0,0.5],[1,0.5]];portConstraint=eastwest;whiteSpace=wrap;html=1;fontSize=16;" parent="ckGaQ8mt0c1OZZj6wi1W-14" vertex="1">
          <mxGeometry y="424" width="330" height="26" as="geometry" />
        </mxCell>
        <mxCell id="7yRF4xjfkNmWZK7dUMPs-56" value="+ count: attr_accessor" style="text;strokeColor=none;fillColor=none;align=left;verticalAlign=top;spacingLeft=4;spacingRight=4;overflow=hidden;rotatable=0;points=[[0,0.5],[1,0.5]];portConstraint=eastwest;whiteSpace=wrap;html=1;fontSize=16;" vertex="1" parent="ckGaQ8mt0c1OZZj6wi1W-14">
          <mxGeometry y="450" width="330" height="26" as="geometry" />
        </mxCell>
        <mxCell id="7yRF4xjfkNmWZK7dUMPs-57" value="- data: attr_reader" style="text;strokeColor=none;fillColor=none;align=left;verticalAlign=top;spacingLeft=4;spacingRight=4;overflow=hidden;rotatable=0;points=[[0,0.5],[1,0.5]];portConstraint=eastwest;whiteSpace=wrap;html=1;fontSize=16;" vertex="1" parent="ckGaQ8mt0c1OZZj6wi1W-14">
          <mxGeometry y="476" width="330" height="26" as="geometry" />
        </mxCell>
        <mxCell id="7yRF4xjfkNmWZK7dUMPs-58" value="- offset: attr_reader" style="text;strokeColor=none;fillColor=none;align=left;verticalAlign=top;spacingLeft=4;spacingRight=4;overflow=hidden;rotatable=0;points=[[0,0.5],[1,0.5]];portConstraint=eastwest;whiteSpace=wrap;html=1;fontSize=16;" vertex="1" parent="ckGaQ8mt0c1OZZj6wi1W-14">
          <mxGeometry y="502" width="330" height="26" as="geometry" />
        </mxCell>
        <mxCell id="7yRF4xjfkNmWZK7dUMPs-59" value="- selecred: attr_accessor" style="text;strokeColor=none;fillColor=none;align=left;verticalAlign=top;spacingLeft=4;spacingRight=4;overflow=hidden;rotatable=0;points=[[0,0.5],[1,0.5]];portConstraint=eastwest;whiteSpace=wrap;html=1;fontSize=16;" vertex="1" parent="ckGaQ8mt0c1OZZj6wi1W-14">
          <mxGeometry y="528" width="330" height="26" as="geometry" />
        </mxCell>
        <mxCell id="7yRF4xjfkNmWZK7dUMPs-60" value="- observers: attr_accessor" style="text;strokeColor=none;fillColor=none;align=left;verticalAlign=top;spacingLeft=4;spacingRight=4;overflow=hidden;rotatable=0;points=[[0,0.5],[1,0.5]];portConstraint=eastwest;whiteSpace=wrap;html=1;fontSize=16;" vertex="1" parent="ckGaQ8mt0c1OZZj6wi1W-14">
          <mxGeometry y="554" width="330" height="26" as="geometry" />
        </mxCell>
        <mxCell id="ckGaQ8mt0c1OZZj6wi1W-35" style="edgeStyle=orthogonalEdgeStyle;rounded=0;orthogonalLoop=1;jettySize=auto;html=1;entryX=0.5;entryY=0;entryDx=0;entryDy=0;dashed=1;strokeWidth=2;endArrow=none;endFill=0;startArrow=open;startFill=0;endSize=6;startSize=15;" parent="1" source="ckGaQ8mt0c1OZZj6wi1W-26" target="ckGaQ8mt0c1OZZj6wi1W-14" edge="1">
          <mxGeometry relative="1" as="geometry" />
        </mxCell>
        <mxCell id="ckGaQ8mt0c1OZZj6wi1W-26" value="DataTable" style="swimlane;fontStyle=1;align=center;verticalAlign=top;childLayout=stackLayout;horizontal=1;startSize=26;horizontalStack=0;resizeParent=1;resizeParentMax=0;resizeLast=0;collapsible=1;marginBottom=0;whiteSpace=wrap;html=1;fontSize=16;" parent="1" vertex="1">
          <mxGeometry x="1025" y="-2913" width="330" height="190" as="geometry" />
        </mxCell>
        <mxCell id="ckGaQ8mt0c1OZZj6wi1W-27" value="&lt;div&gt;- data: Object[][]&lt;/div&gt;" style="text;strokeColor=none;fillColor=none;align=left;verticalAlign=top;spacingLeft=4;spacingRight=4;overflow=hidden;rotatable=0;points=[[0,0.5],[1,0.5]];portConstraint=eastwest;whiteSpace=wrap;html=1;fontSize=16;" parent="ckGaQ8mt0c1OZZj6wi1W-26" vertex="1">
          <mxGeometry y="26" width="330" height="26" as="geometry" />
        </mxCell>
        <mxCell id="ckGaQ8mt0c1OZZj6wi1W-28" value="" style="line;strokeWidth=1;fillColor=none;align=left;verticalAlign=middle;spacingTop=-1;spacingLeft=3;spacingRight=3;rotatable=0;labelPosition=right;points=[];portConstraint=eastwest;strokeColor=inherit;" parent="ckGaQ8mt0c1OZZj6wi1W-26" vertex="1">
          <mxGeometry y="52" width="330" height="8" as="geometry" />
        </mxCell>
        <mxCell id="ckGaQ8mt0c1OZZj6wi1W-29" value="+ get_element(row_index, column_index)" style="text;strokeColor=none;fillColor=none;align=left;verticalAlign=top;spacingLeft=4;spacingRight=4;overflow=hidden;rotatable=0;points=[[0,0.5],[1,0.5]];portConstraint=eastwest;whiteSpace=wrap;html=1;fontSize=16;" parent="ckGaQ8mt0c1OZZj6wi1W-26" vertex="1">
          <mxGeometry y="60" width="330" height="26" as="geometry" />
        </mxCell>
        <mxCell id="ckGaQ8mt0c1OZZj6wi1W-30" value="+ row_count&lt;span style=&quot;color: rgba(0, 0, 0, 0); font-family: monospace; font-size: 0px; text-wrap-mode: nowrap;&quot;&gt;%3CmxGraphModel%3E%3Croot%3E%3CmxCell%20id%3D%220%22%2F%3E%3CmxCell%20id%3D%221%22%20parent%3D%220%22%2F%3E%3CmxCell%20id%3D%222%22%20value%3D%22DataListStudentShort%22%20style%3D%22swimlane%3BfontStyle%3D1%3Balign%3Dcenter%3BverticalAlign%3Dtop%3BchildLayout%3DstackLayout%3Bhorizontal%3D1%3BstartSize%3D26%3BhorizontalStack%3D0%3BresizeParent%3D1%3BresizeParentMax%3D0%3BresizeLast%3D0%3Bcollapsible%3D1%3BmarginBottom%3D0%3BwhiteSpace%3Dwrap%3Bhtml%3D1%3BfontSize%3D16%3B%22%20vertex%3D%221%22%20parent%3D%221%22%3E%3CmxGeometry%20x%3D%22780%22%20y%3D%22-1600%22%20width%3D%22330%22%20height%3D%22112%22%20as%3D%22geometry%22%2F%3E%3C%2FmxCell%3E%3CmxCell%20id%3D%223%22%20value%3D%22%26lt%3Bdiv%26gt%3B%26lt%3Bbr%26gt%3B%26lt%3B%2Fdiv%26gt%3B%26lt%3Bdiv%26gt%3B%26lt%3Bbr%26gt%3B%26lt%3B%2Fdiv%26gt%3B%22%20style%3D%22text%3BstrokeColor%3Dnone%3BfillColor%3Dnone%3Balign%3Dleft%3BverticalAlign%3Dtop%3BspacingLeft%3D4%3BspacingRight%3D4%3Boverflow%3Dhidden%3Brotatable%3D0%3Bpoints%3D%5B%5B0%2C0.5%5D%2C%5B1%2C0.5%5D%5D%3BportConstraint%3Deastwest%3BwhiteSpace%3Dwrap%3Bhtml%3D1%3BfontSize%3D16%3B%22%20vertex%3D%221%22%20parent%3D%222%22%3E%3CmxGeometry%20y%3D%2226%22%20width%3D%22330%22%20height%3D%2226%22%20as%3D%22geometry%22%2F%3E%3C%2FmxCell%3E%3CmxCell%20id%3D%224%22%20value%3D%22%22%20style%3D%22line%3BstrokeWidth%3D1%3BfillColor%3Dnone%3Balign%3Dleft%3BverticalAlign%3Dmiddle%3BspacingTop%3D-1%3BspacingLeft%3D3%3BspacingRight%3D3%3Brotatable%3D0%3BlabelPosition%3Dright%3Bpoints%3D%5B%5D%3BportConstraint%3Deastwest%3BstrokeColor%3Dinherit%3B%22%20vertex%3D%221%22%20parent%3D%222%22%3E%3CmxGeometry%20y%3D%2252%22%20width%3D%22330%22%20height%3D%228%22%20as%3D%22geometry%22%2F%3E%3C%2FmxCell%3E%3CmxCell%20id%3D%225%22%20value%3D%22-%20base_names()%22%20style%3D%22text%3BstrokeColor%3Dnone%3BfillColor%3Dnone%3Balign%3Dleft%3BverticalAlign%3Dtop%3BspacingLeft%3D4%3BspacingRight%3D4%3Boverflow%3Dhidden%3Brotatable%3D0%3Bpoints%3D%5B%5B0%2C0.5%5D%2C%5B1%2C0.5%5D%5D%3BportConstraint%3Deastwest%3BwhiteSpace%3Dwrap%3Bhtml%3D1%3BfontSize%3D16%3B%22%20vertex%3D%221%22%20parent%3D%222%22%3E%3CmxGeometry%20y%3D%2260%22%20width%3D%22330%22%20height%3D%2226%22%20as%3D%22geometry%22%2F%3E%3C%2FmxCell%3E%3CmxCell%20id%3D%226%22%20value%3D%22-%20build_row(student_short%2C%20index)%22%20style%3D%22text%3BstrokeColor%3Dnone%3BfillColor%3Dnone%3Balign%3Dleft%3BverticalAlign%3Dtop%3BspacingLeft%3D4%3BspacingRight%3D4%3Boverflow%3Dhidden%3Brotatable%3D0%3Bpoints%3D%5B%5B0%2C0.5%5D%2C%5B1%2C0.5%5D%5D%3BportConstraint%3Deastwest%3BwhiteSpace%3Dwrap%3Bhtml%3D1%3BfontSize%3D16%3B%22%20vertex%3D%221%22%20parent%3D%222%22%3E%3CmxGeometry%20y%3D%2286%22%20width%3D%22330%22%20height%3D%2226%22%20as%3D%22geometry%22%2F%3E%3C%2FmxCell%3E%3C%2Froot%3E%3C%2FmxGraphModel%3E&lt;/span&gt;" style="text;strokeColor=none;fillColor=none;align=left;verticalAlign=top;spacingLeft=4;spacingRight=4;overflow=hidden;rotatable=0;points=[[0,0.5],[1,0.5]];portConstraint=eastwest;whiteSpace=wrap;html=1;fontSize=16;" parent="ckGaQ8mt0c1OZZj6wi1W-26" vertex="1">
          <mxGeometry y="86" width="330" height="26" as="geometry" />
        </mxCell>
        <mxCell id="ckGaQ8mt0c1OZZj6wi1W-31" value="+ column_count&lt;span style=&quot;color: rgba(0, 0, 0, 0); font-family: monospace; font-size: 0px; text-wrap-mode: nowrap;&quot;&gt;%3CmxGraphModel%3E%3Croot%3E%3CmxCell%20id%3D%220%22%2F%3E%3CmxCell%20id%3D%221%22%20parent%3D%220%22%2F%3E%3CmxCell%20id%3D%222%22%20value%3D%22DataListStudentShort%22%20style%3D%22swimlane%3BfontStyle%3D1%3Balign%3Dcenter%3BverticalAlign%3Dtop%3BchildLayout%3DstackLayout%3Bhorizontal%3D1%3BstartSize%3D26%3BhorizontalStack%3D0%3BresizeParent%3D1%3BresizeParentMax%3D0%3BresizeLast%3D0%3Bcollapsible%3D1%3BmarginBottom%3D0%3BwhiteSpace%3Dwrap%3Bhtml%3D1%3BfontSize%3D16%3B%22%20vertex%3D%221%22%20parent%3D%221%22%3E%3CmxGeometry%20x%3D%22780%22%20y%3D%22-1600%22%20width%3D%22330%22%20height%3D%22112%22%20as%3D%22geometry%22%2F%3E%3C%2FmxCell%3E%3CmxCell%20id%3D%223%22%20value%3D%22%26lt%3Bdiv%26gt%3B%26lt%3Bbr%26gt%3B%26lt%3B%2Fdiv%26gt%3B%26lt%3Bdiv%26gt%3B%26lt%3Bbr%26gt%3B%26lt%3B%2Fdiv%26gt%3B%22%20style%3D%22text%3BstrokeColor%3Dnone%3BfillColor%3Dnone%3Balign%3Dleft%3BverticalAlign%3Dtop%3BspacingLeft%3D4%3BspacingRight%3D4%3Boverflow%3Dhidden%3Brotatable%3D0%3Bpoints%3D%5B%5B0%2C0.5%5D%2C%5B1%2C0.5%5D%5D%3BportConstraint%3Deastwest%3BwhiteSpace%3Dwrap%3Bhtml%3D1%3BfontSize%3D16%3B%22%20vertex%3D%221%22%20parent%3D%222%22%3E%3CmxGeometry%20y%3D%2226%22%20width%3D%22330%22%20height%3D%2226%22%20as%3D%22geometry%22%2F%3E%3C%2FmxCell%3E%3CmxCell%20id%3D%224%22%20value%3D%22%22%20style%3D%22line%3BstrokeWidth%3D1%3BfillColor%3Dnone%3Balign%3Dleft%3BverticalAlign%3Dmiddle%3BspacingTop%3D-1%3BspacingLeft%3D3%3BspacingRight%3D3%3Brotatable%3D0%3BlabelPosition%3Dright%3Bpoints%3D%5B%5D%3BportConstraint%3Deastwest%3BstrokeColor%3Dinherit%3B%22%20vertex%3D%221%22%20parent%3D%222%22%3E%3CmxGeometry%20y%3D%2252%22%20width%3D%22330%22%20height%3D%228%22%20as%3D%22geometry%22%2F%3E%3C%2FmxCell%3E%3CmxCell%20id%3D%225%22%20value%3D%22-%20base_names()%22%20style%3D%22text%3BstrokeColor%3Dnone%3BfillColor%3Dnone%3Balign%3Dleft%3BverticalAlign%3Dtop%3BspacingLeft%3D4%3BspacingRight%3D4%3Boverflow%3Dhidden%3Brotatable%3D0%3Bpoints%3D%5B%5B0%2C0.5%5D%2C%5B1%2C0.5%5D%5D%3BportConstraint%3Deastwest%3BwhiteSpace%3Dwrap%3Bhtml%3D1%3BfontSize%3D16%3B%22%20vertex%3D%221%22%20parent%3D%222%22%3E%3CmxGeometry%20y%3D%2260%22%20width%3D%22330%22%20height%3D%2226%22%20as%3D%22geometry%22%2F%3E%3C%2FmxCell%3E%3CmxCell%20id%3D%226%22%20value%3D%22-%20build_row(student_short%2C%20index)%22%20style%3D%22text%3BstrokeColor%3Dnone%3BfillColor%3Dnone%3Balign%3Dleft%3BverticalAlign%3Dtop%3BspacingLeft%3D4%3BspacingRight%3D4%3Boverflow%3Dhidden%3Brotatable%3D0%3Bpoints%3D%5B%5B0%2C0.5%5D%2C%5B1%2C0.5%5D%5D%3BportConstraint%3Deastwest%3BwhiteSpace%3Dwrap%3Bhtml%3D1%3BfontSize%3D16%3B%22%20vertex%3D%221%22%20parent%3D%222%22%3E%3CmxGeometry%20y%3D%2286%22%20width%3D%22330%22%20height%3D%2226%22%20as%3D%22geometry%22%2F%3E%3C%2FmxCell%3E%3C%2Froot%3E%3C%2FmxGraphModel%3E&lt;/span&gt;" style="text;strokeColor=none;fillColor=none;align=left;verticalAlign=top;spacingLeft=4;spacingRight=4;overflow=hidden;rotatable=0;points=[[0,0.5],[1,0.5]];portConstraint=eastwest;whiteSpace=wrap;html=1;fontSize=16;" parent="ckGaQ8mt0c1OZZj6wi1W-26" vertex="1">
          <mxGeometry y="112" width="330" height="26" as="geometry" />
        </mxCell>
        <mxCell id="ckGaQ8mt0c1OZZj6wi1W-32" value="- data: attr_reader&lt;span style=&quot;color: rgba(0, 0, 0, 0); font-family: monospace; font-size: 0px; text-wrap-mode: nowrap;&quot;&gt;%3CmxGraphModel%3E%3Croot%3E%3CmxCell%20id%3D%220%22%2F%3E%3CmxCell%20id%3D%221%22%20parent%3D%220%22%2F%3E%3CmxCell%20id%3D%222%22%20value%3D%22%2B%20row_count%26lt%3Bspan%20style%3D%26quot%3Bcolor%3A%20rgba(0%2C%200%2C%200%2C%200)%3B%20font-family%3A%20monospace%3B%20font-size%3A%200px%3B%20text-wrap-mode%3A%20nowrap%3B%26quot%3B%26gt%3B%253CmxGraphModel%253E%253Croot%253E%253CmxCell%2520id%253D%25220%2522%252F%253E%253CmxCell%2520id%253D%25221%2522%2520parent%253D%25220%2522%252F%253E%253CmxCell%2520id%253D%25222%2522%2520value%253D%2522DataListStudentShort%2522%2520style%253D%2522swimlane%253BfontStyle%253D1%253Balign%253Dcenter%253BverticalAlign%253Dtop%253BchildLayout%253DstackLayout%253Bhorizontal%253D1%253BstartSize%253D26%253BhorizontalStack%253D0%253BresizeParent%253D1%253BresizeParentMax%253D0%253BresizeLast%253D0%253Bcollapsible%253D1%253BmarginBottom%253D0%253BwhiteSpace%253Dwrap%253Bhtml%253D1%253BfontSize%253D16%253B%2522%2520vertex%253D%25221%2522%2520parent%253D%25221%2522%253E%253CmxGeometry%2520x%253D%2522780%2522%2520y%253D%2522-1600%2522%2520width%253D%2522330%2522%2520height%253D%2522112%2522%2520as%253D%2522geometry%2522%252F%253E%253C%252FmxCell%253E%253CmxCell%2520id%253D%25223%2522%2520value%253D%2522%2526lt%253Bdiv%2526gt%253B%2526lt%253Bbr%2526gt%253B%2526lt%253B%252Fdiv%2526gt%253B%2526lt%253Bdiv%2526gt%253B%2526lt%253Bbr%2526gt%253B%2526lt%253B%252Fdiv%2526gt%253B%2522%2520style%253D%2522text%253BstrokeColor%253Dnone%253BfillColor%253Dnone%253Balign%253Dleft%253BverticalAlign%253Dtop%253BspacingLeft%253D4%253BspacingRight%253D4%253Boverflow%253Dhidden%253Brotatable%253D0%253Bpoints%253D%255B%255B0%252C0.5%255D%252C%255B1%252C0.5%255D%255D%253BportConstraint%253Deastwest%253BwhiteSpace%253Dwrap%253Bhtml%253D1%253BfontSize%253D16%253B%2522%2520vertex%253D%25221%2522%2520parent%253D%25222%2522%253E%253CmxGeometry%2520y%253D%252226%2522%2520width%253D%2522330%2522%2520height%253D%252226%2522%2520as%253D%2522geometry%2522%252F%253E%253C%252FmxCell%253E%253CmxCell%2520id%253D%25224%2522%2520value%253D%2522%2522%2520style%253D%2522line%253BstrokeWidth%253D1%253BfillColor%253Dnone%253Balign%253Dleft%253BverticalAlign%253Dmiddle%253BspacingTop%253D-1%253BspacingLeft%253D3%253BspacingRight%253D3%253Brotatable%253D0%253BlabelPosition%253Dright%253Bpoints%253D%255B%255D%253BportConstraint%253Deastwest%253BstrokeColor%253Dinherit%253B%2522%2520vertex%253D%25221%2522%2520parent%253D%25222%2522%253E%253CmxGeometry%2520y%253D%252252%2522%2520width%253D%2522330%2522%2520height%253D%25228%2522%2520as%253D%2522geometry%2522%252F%253E%253C%252FmxCell%253E%253CmxCell%2520id%253D%25225%2522%2520value%253D%2522-%2520base_names()%2522%2520style%253D%2522text%253BstrokeColor%253Dnone%253BfillColor%253Dnone%253Balign%253Dleft%253BverticalAlign%253Dtop%253BspacingLeft%253D4%253BspacingRight%253D4%253Boverflow%253Dhidden%253Brotatable%253D0%253Bpoints%253D%255B%255B0%252C0.5%255D%252C%255B1%252C0.5%255D%255D%253BportConstraint%253Deastwest%253BwhiteSpace%253Dwrap%253Bhtml%253D1%253BfontSize%253D16%253B%2522%2520vertex%253D%25221%2522%2520parent%253D%25222%2522%253E%253CmxGeometry%2520y%253D%252260%2522%2520width%253D%2522330%2522%2520height%253D%252226%2522%2520as%253D%2522geometry%2522%252F%253E%253C%252FmxCell%253E%253CmxCell%2520id%253D%25226%2522%2520value%253D%2522-%2520build_row(student_short%252C%2520index)%2522%2520style%253D%2522text%253BstrokeColor%253Dnone%253BfillColor%253Dnone%253Balign%253Dleft%253BverticalAlign%253Dtop%253BspacingLeft%253D4%253BspacingRight%253D4%253Boverflow%253Dhidden%253Brotatable%253D0%253Bpoints%253D%255B%255B0%252C0.5%255D%252C%255B1%252C0.5%255D%255D%253BportConstraint%253Deastwest%253BwhiteSpace%253Dwrap%253Bhtml%253D1%253BfontSize%253D16%253B%2522%2520vertex%253D%25221%2522%2520parent%253D%25222%2522%253E%253CmxGeometry%2520y%253D%252286%2522%2520width%253D%2522330%2522%2520height%253D%252226%2522%2520as%253D%2522geometry%2522%252F%253E%253C%252FmxCell%253E%253C%252Froot%253E%253C%252FmxGraphModel%253E%26lt%3B%2Fspan%26gt%3B%22%20style%3D%22text%3BstrokeColor%3Dnone%3BfillColor%3Dnone%3Balign%3Dleft%3BverticalAlign%3Dtop%3BspacingLeft%3D4%3BspacingRight%3D4%3Boverflow%3Dhidden%3Brotatable%3D0%3Bpoints%3D%5B%5B0%2C0.5%5D%2C%5B1%2C0.5%5D%5D%3BportConstraint%3Deastwest%3BwhiteSpace%3Dwrap%3Bhtml%3D1%3BfontSize%3D16%3B%22%20vertex%3D%221%22%20parent%3D%221%22%3E%3CmxGeometry%20x%3D%22360%22%20y%3D%22-1734%22%20width%3D%22330%22%20height%3D%2226%22%20as%3D%22geometry%22%2F%3E%3C%2FmxCell%3E%3C%2Froot%3E%3C%2FmxGraphModel%3E&lt;/span&gt;" style="text;strokeColor=none;fillColor=none;align=left;verticalAlign=top;spacingLeft=4;spacingRight=4;overflow=hidden;rotatable=0;points=[[0,0.5],[1,0.5]];portConstraint=eastwest;whiteSpace=wrap;html=1;fontSize=16;" parent="ckGaQ8mt0c1OZZj6wi1W-26" vertex="1">
          <mxGeometry y="138" width="330" height="26" as="geometry" />
        </mxCell>
        <mxCell id="ckGaQ8mt0c1OZZj6wi1W-33" value="- data=(data)" style="text;strokeColor=none;fillColor=none;align=left;verticalAlign=top;spacingLeft=4;spacingRight=4;overflow=hidden;rotatable=0;points=[[0,0.5],[1,0.5]];portConstraint=eastwest;whiteSpace=wrap;html=1;fontSize=16;" parent="ckGaQ8mt0c1OZZj6wi1W-26" vertex="1">
          <mxGeometry y="164" width="330" height="26" as="geometry" />
        </mxCell>
        <mxCell id="7yRF4xjfkNmWZK7dUMPs-205" style="edgeStyle=orthogonalEdgeStyle;rounded=0;orthogonalLoop=1;jettySize=auto;html=1;entryX=0;entryY=0.5;entryDx=0;entryDy=0;endArrow=diamondThin;endFill=1;strokeWidth=2;endSize=15;" edge="1" parent="1" source="ckGaQ8mt0c1OZZj6wi1W-40" target="7yRF4xjfkNmWZK7dUMPs-143">
          <mxGeometry relative="1" as="geometry">
            <Array as="points">
              <mxPoint x="393" y="-1657" />
              <mxPoint x="393" y="-2916" />
            </Array>
          </mxGeometry>
        </mxCell>
        <mxCell id="ckGaQ8mt0c1OZZj6wi1W-40" value="StudentsList" style="swimlane;fontStyle=1;align=center;verticalAlign=top;childLayout=stackLayout;horizontal=1;startSize=26;horizontalStack=0;resizeParent=1;resizeParentMax=0;resizeLast=0;collapsible=1;marginBottom=0;whiteSpace=wrap;html=1;fontSize=16;" parent="1" vertex="1">
          <mxGeometry x="2222" y="-1703" width="363" height="268" as="geometry" />
        </mxCell>
        <mxCell id="ckGaQ8mt0c1OZZj6wi1W-41" value="- adapter" style="text;strokeColor=none;fillColor=none;align=left;verticalAlign=top;spacingLeft=4;spacingRight=4;overflow=hidden;rotatable=0;points=[[0,0.5],[1,0.5]];portConstraint=eastwest;whiteSpace=wrap;html=1;fontSize=16;" parent="ckGaQ8mt0c1OZZj6wi1W-40" vertex="1">
          <mxGeometry y="26" width="363" height="26" as="geometry" />
        </mxCell>
        <mxCell id="ckGaQ8mt0c1OZZj6wi1W-43" value="" style="line;strokeWidth=1;fillColor=none;align=left;verticalAlign=middle;spacingTop=-1;spacingLeft=3;spacingRight=3;rotatable=0;labelPosition=right;points=[];portConstraint=eastwest;strokeColor=inherit;" parent="ckGaQ8mt0c1OZZj6wi1W-40" vertex="1">
          <mxGeometry y="52" width="363" height="8" as="geometry" />
        </mxCell>
        <mxCell id="ckGaQ8mt0c1OZZj6wi1W-46" value="+ initialize(adapter)" style="text;strokeColor=none;fillColor=none;align=left;verticalAlign=top;spacingLeft=4;spacingRight=4;overflow=hidden;rotatable=0;points=[[0,0.5],[1,0.5]];portConstraint=eastwest;whiteSpace=wrap;html=1;fontSize=16;" parent="ckGaQ8mt0c1OZZj6wi1W-40" vertex="1">
          <mxGeometry y="60" width="363" height="26" as="geometry" />
        </mxCell>
        <mxCell id="ckGaQ8mt0c1OZZj6wi1W-47" value="+ get_student_by_id(id)" style="text;strokeColor=none;fillColor=none;align=left;verticalAlign=top;spacingLeft=4;spacingRight=4;overflow=hidden;rotatable=0;points=[[0,0.5],[1,0.5]];portConstraint=eastwest;whiteSpace=wrap;html=1;fontSize=16;" parent="ckGaQ8mt0c1OZZj6wi1W-40" vertex="1">
          <mxGeometry y="86" width="363" height="26" as="geometry" />
        </mxCell>
        <mxCell id="ckGaQ8mt0c1OZZj6wi1W-48" value="+ get_k_n_student_short_list(k, n, data_list = nil)" style="text;strokeColor=none;fillColor=none;align=left;verticalAlign=top;spacingLeft=4;spacingRight=4;overflow=hidden;rotatable=0;points=[[0,0.5],[1,0.5]];portConstraint=eastwest;whiteSpace=wrap;html=1;fontSize=16;" parent="ckGaQ8mt0c1OZZj6wi1W-40" vertex="1">
          <mxGeometry y="112" width="363" height="26" as="geometry" />
        </mxCell>
        <mxCell id="ckGaQ8mt0c1OZZj6wi1W-50" value="+ add_student(student)" style="text;strokeColor=none;fillColor=none;align=left;verticalAlign=top;spacingLeft=4;spacingRight=4;overflow=hidden;rotatable=0;points=[[0,0.5],[1,0.5]];portConstraint=eastwest;whiteSpace=wrap;html=1;fontSize=16;" parent="ckGaQ8mt0c1OZZj6wi1W-40" vertex="1">
          <mxGeometry y="138" width="363" height="26" as="geometry" />
        </mxCell>
        <mxCell id="ckGaQ8mt0c1OZZj6wi1W-51" value="+ replace_student_by_id(id, new_student)" style="text;strokeColor=none;fillColor=none;align=left;verticalAlign=top;spacingLeft=4;spacingRight=4;overflow=hidden;rotatable=0;points=[[0,0.5],[1,0.5]];portConstraint=eastwest;whiteSpace=wrap;html=1;fontSize=16;" parent="ckGaQ8mt0c1OZZj6wi1W-40" vertex="1">
          <mxGeometry y="164" width="363" height="26" as="geometry" />
        </mxCell>
        <mxCell id="ckGaQ8mt0c1OZZj6wi1W-69" value="+ delete_student_by_id(id)" style="text;strokeColor=none;fillColor=none;align=left;verticalAlign=top;spacingLeft=4;spacingRight=4;overflow=hidden;rotatable=0;points=[[0,0.5],[1,0.5]];portConstraint=eastwest;whiteSpace=wrap;html=1;fontSize=16;" parent="ckGaQ8mt0c1OZZj6wi1W-40" vertex="1">
          <mxGeometry y="190" width="363" height="26" as="geometry" />
        </mxCell>
        <mxCell id="ckGaQ8mt0c1OZZj6wi1W-70" value="+ get_student_short_count" style="text;strokeColor=none;fillColor=none;align=left;verticalAlign=top;spacingLeft=4;spacingRight=4;overflow=hidden;rotatable=0;points=[[0,0.5],[1,0.5]];portConstraint=eastwest;whiteSpace=wrap;html=1;fontSize=16;" parent="ckGaQ8mt0c1OZZj6wi1W-40" vertex="1">
          <mxGeometry y="216" width="363" height="26" as="geometry" />
        </mxCell>
        <mxCell id="ckGaQ8mt0c1OZZj6wi1W-71" value="- adapter: attr_accessor" style="text;strokeColor=none;fillColor=none;align=left;verticalAlign=top;spacingLeft=4;spacingRight=4;overflow=hidden;rotatable=0;points=[[0,0.5],[1,0.5]];portConstraint=eastwest;whiteSpace=wrap;html=1;fontSize=16;" parent="ckGaQ8mt0c1OZZj6wi1W-40" vertex="1">
          <mxGeometry y="242" width="363" height="26" as="geometry" />
        </mxCell>
        <mxCell id="ckGaQ8mt0c1OZZj6wi1W-52" value="StudentsListJSON" style="swimlane;fontStyle=1;align=center;verticalAlign=top;childLayout=stackLayout;horizontal=1;startSize=26;horizontalStack=0;resizeParent=1;resizeParentMax=0;resizeLast=0;collapsible=1;marginBottom=0;whiteSpace=wrap;html=1;fontSize=16;" parent="1" vertex="1">
          <mxGeometry x="844" y="-2000" width="330" height="138" as="geometry" />
        </mxCell>
        <mxCell id="ckGaQ8mt0c1OZZj6wi1W-53" value="&lt;div&gt;&lt;br&gt;&lt;/div&gt;&lt;div&gt;&lt;br&gt;&lt;/div&gt;" style="text;strokeColor=none;fillColor=none;align=left;verticalAlign=top;spacingLeft=4;spacingRight=4;overflow=hidden;rotatable=0;points=[[0,0.5],[1,0.5]];portConstraint=eastwest;whiteSpace=wrap;html=1;fontSize=16;" parent="ckGaQ8mt0c1OZZj6wi1W-52" vertex="1">
          <mxGeometry y="26" width="330" height="26" as="geometry" />
        </mxCell>
        <mxCell id="ckGaQ8mt0c1OZZj6wi1W-54" value="" style="line;strokeWidth=1;fillColor=none;align=left;verticalAlign=middle;spacingTop=-1;spacingLeft=3;spacingRight=3;rotatable=0;labelPosition=right;points=[];portConstraint=eastwest;strokeColor=inherit;" parent="ckGaQ8mt0c1OZZj6wi1W-52" vertex="1">
          <mxGeometry y="52" width="330" height="8" as="geometry" />
        </mxCell>
        <mxCell id="ckGaQ8mt0c1OZZj6wi1W-55" value="+ read()" style="text;strokeColor=none;fillColor=none;align=left;verticalAlign=top;spacingLeft=4;spacingRight=4;overflow=hidden;rotatable=0;points=[[0,0.5],[1,0.5]];portConstraint=eastwest;whiteSpace=wrap;html=1;fontSize=16;" parent="ckGaQ8mt0c1OZZj6wi1W-52" vertex="1">
          <mxGeometry y="60" width="330" height="26" as="geometry" />
        </mxCell>
        <mxCell id="ckGaQ8mt0c1OZZj6wi1W-56" value="+ write()" style="text;strokeColor=none;fillColor=none;align=left;verticalAlign=top;spacingLeft=4;spacingRight=4;overflow=hidden;rotatable=0;points=[[0,0.5],[1,0.5]];portConstraint=eastwest;whiteSpace=wrap;html=1;fontSize=16;" parent="ckGaQ8mt0c1OZZj6wi1W-52" vertex="1">
          <mxGeometry y="86" width="330" height="26" as="geometry" />
        </mxCell>
        <mxCell id="ckGaQ8mt0c1OZZj6wi1W-62" value="- empty_content" style="text;strokeColor=none;fillColor=none;align=left;verticalAlign=top;spacingLeft=4;spacingRight=4;overflow=hidden;rotatable=0;points=[[0,0.5],[1,0.5]];portConstraint=eastwest;whiteSpace=wrap;html=1;fontSize=16;" parent="ckGaQ8mt0c1OZZj6wi1W-52" vertex="1">
          <mxGeometry y="112" width="330" height="26" as="geometry" />
        </mxCell>
        <mxCell id="ckGaQ8mt0c1OZZj6wi1W-63" value="StudentsListYAML" style="swimlane;fontStyle=1;align=center;verticalAlign=top;childLayout=stackLayout;horizontal=1;startSize=26;horizontalStack=0;resizeParent=1;resizeParentMax=0;resizeLast=0;collapsible=1;marginBottom=0;whiteSpace=wrap;html=1;fontSize=16;" parent="1" vertex="1">
          <mxGeometry x="844" y="-1838" width="330" height="138" as="geometry" />
        </mxCell>
        <mxCell id="ckGaQ8mt0c1OZZj6wi1W-64" value="&lt;div&gt;&lt;br&gt;&lt;/div&gt;&lt;div&gt;&lt;br&gt;&lt;/div&gt;" style="text;strokeColor=none;fillColor=none;align=left;verticalAlign=top;spacingLeft=4;spacingRight=4;overflow=hidden;rotatable=0;points=[[0,0.5],[1,0.5]];portConstraint=eastwest;whiteSpace=wrap;html=1;fontSize=16;" parent="ckGaQ8mt0c1OZZj6wi1W-63" vertex="1">
          <mxGeometry y="26" width="330" height="26" as="geometry" />
        </mxCell>
        <mxCell id="ckGaQ8mt0c1OZZj6wi1W-65" value="" style="line;strokeWidth=1;fillColor=none;align=left;verticalAlign=middle;spacingTop=-1;spacingLeft=3;spacingRight=3;rotatable=0;labelPosition=right;points=[];portConstraint=eastwest;strokeColor=inherit;" parent="ckGaQ8mt0c1OZZj6wi1W-63" vertex="1">
          <mxGeometry y="52" width="330" height="8" as="geometry" />
        </mxCell>
        <mxCell id="ckGaQ8mt0c1OZZj6wi1W-66" value="+ read()" style="text;strokeColor=none;fillColor=none;align=left;verticalAlign=top;spacingLeft=4;spacingRight=4;overflow=hidden;rotatable=0;points=[[0,0.5],[1,0.5]];portConstraint=eastwest;whiteSpace=wrap;html=1;fontSize=16;" parent="ckGaQ8mt0c1OZZj6wi1W-63" vertex="1">
          <mxGeometry y="60" width="330" height="26" as="geometry" />
        </mxCell>
        <mxCell id="ckGaQ8mt0c1OZZj6wi1W-67" value="+ write()" style="text;strokeColor=none;fillColor=none;align=left;verticalAlign=top;spacingLeft=4;spacingRight=4;overflow=hidden;rotatable=0;points=[[0,0.5],[1,0.5]];portConstraint=eastwest;whiteSpace=wrap;html=1;fontSize=16;" parent="ckGaQ8mt0c1OZZj6wi1W-63" vertex="1">
          <mxGeometry y="86" width="330" height="26" as="geometry" />
        </mxCell>
        <mxCell id="ckGaQ8mt0c1OZZj6wi1W-68" value="- empty_content" style="text;strokeColor=none;fillColor=none;align=left;verticalAlign=top;spacingLeft=4;spacingRight=4;overflow=hidden;rotatable=0;points=[[0,0.5],[1,0.5]];portConstraint=eastwest;whiteSpace=wrap;html=1;fontSize=16;" parent="ckGaQ8mt0c1OZZj6wi1W-63" vertex="1">
          <mxGeometry y="112" width="330" height="26" as="geometry" />
        </mxCell>
        <mxCell id="ckGaQ8mt0c1OZZj6wi1W-75" style="edgeStyle=orthogonalEdgeStyle;rounded=0;orthogonalLoop=1;jettySize=auto;html=1;entryX=0;entryY=0.5;entryDx=0;entryDy=0;endArrow=none;endFill=0;endSize=15;strokeWidth=2;startArrow=diamondThin;startFill=0;startSize=15;exitX=1;exitY=0.5;exitDx=0;exitDy=0;" parent="1" source="7yRF4xjfkNmWZK7dUMPs-46" target="_60M-hrK0tJfBThX2oCK-36" edge="1">
          <mxGeometry relative="1" as="geometry">
            <mxPoint x="2018" y="-2127" as="sourcePoint" />
          </mxGeometry>
        </mxCell>
        <mxCell id="ckGaQ8mt0c1OZZj6wi1W-76" style="edgeStyle=orthogonalEdgeStyle;rounded=0;orthogonalLoop=1;jettySize=auto;html=1;entryX=1;entryY=0.5;entryDx=0;entryDy=0;dashed=1;strokeWidth=2;endArrow=open;endFill=0;endSize=15;exitX=1;exitY=0.5;exitDx=0;exitDy=0;" parent="1" source="7yRF4xjfkNmWZK7dUMPs-35" target="_60M-hrK0tJfBThX2oCK-25" edge="1">
          <mxGeometry relative="1" as="geometry">
            <Array as="points">
              <mxPoint x="1951" y="-2171" />
              <mxPoint x="1983" y="-2171" />
              <mxPoint x="1983" y="-2646" />
            </Array>
            <mxPoint x="1990" y="-2170" as="sourcePoint" />
          </mxGeometry>
        </mxCell>
        <mxCell id="ckGaQ8mt0c1OZZj6wi1W-77" style="edgeStyle=orthogonalEdgeStyle;rounded=0;orthogonalLoop=1;jettySize=auto;html=1;dashed=1;strokeWidth=2;endArrow=open;endFill=0;endSize=15;exitX=1;exitY=0.5;exitDx=0;exitDy=0;entryX=1;entryY=0.5;entryDx=0;entryDy=0;" parent="1" source="7yRF4xjfkNmWZK7dUMPs-35" target="ckGaQ8mt0c1OZZj6wi1W-9" edge="1">
          <mxGeometry relative="1" as="geometry">
            <Array as="points">
              <mxPoint x="1951" y="-2171" />
              <mxPoint x="1968" y="-2171" />
              <mxPoint x="1968" y="-2374" />
            </Array>
            <mxPoint x="1961.01" y="-2182.29" as="sourcePoint" />
            <mxPoint x="1896" y="-2374" as="targetPoint" />
          </mxGeometry>
        </mxCell>
        <mxCell id="ckGaQ8mt0c1OZZj6wi1W-78" style="edgeStyle=orthogonalEdgeStyle;rounded=0;orthogonalLoop=1;jettySize=auto;html=1;entryX=0;entryY=0.5;entryDx=0;entryDy=0;endArrow=block;endFill=0;endSize=15;dashed=1;strokeWidth=2;" parent="1" source="ckGaQ8mt0c1OZZj6wi1W-55" target="ckGaQ8mt0c1OZZj6wi1W-84" edge="1">
          <mxGeometry relative="1" as="geometry">
            <Array as="points">
              <mxPoint x="1209" y="-1925" />
              <mxPoint x="1209" y="-1847" />
            </Array>
          </mxGeometry>
        </mxCell>
        <mxCell id="ckGaQ8mt0c1OZZj6wi1W-79" style="edgeStyle=orthogonalEdgeStyle;rounded=0;orthogonalLoop=1;jettySize=auto;html=1;exitX=1;exitY=0.5;exitDx=0;exitDy=0;entryX=0;entryY=0.5;entryDx=0;entryDy=0;endArrow=block;endFill=0;endSize=15;dashed=1;strokeWidth=2;" parent="1" source="ckGaQ8mt0c1OZZj6wi1W-66" target="ckGaQ8mt0c1OZZj6wi1W-84" edge="1">
          <mxGeometry relative="1" as="geometry">
            <Array as="points">
              <mxPoint x="1209" y="-1763" />
              <mxPoint x="1209" y="-1847" />
            </Array>
          </mxGeometry>
        </mxCell>
        <mxCell id="ckGaQ8mt0c1OZZj6wi1W-81" value="StudentsListStrategy" style="swimlane;fontStyle=1;align=center;verticalAlign=top;childLayout=stackLayout;horizontal=1;startSize=26;horizontalStack=0;resizeParent=1;resizeParentMax=0;resizeLast=0;collapsible=1;marginBottom=0;whiteSpace=wrap;html=1;fontSize=16;" parent="1" vertex="1">
          <mxGeometry x="1235" y="-1920" width="276" height="138" as="geometry" />
        </mxCell>
        <mxCell id="ckGaQ8mt0c1OZZj6wi1W-82" value="&lt;div&gt;&lt;br&gt;&lt;/div&gt;&lt;div&gt;&lt;br&gt;&lt;/div&gt;" style="text;strokeColor=none;fillColor=none;align=left;verticalAlign=top;spacingLeft=4;spacingRight=4;overflow=hidden;rotatable=0;points=[[0,0.5],[1,0.5]];portConstraint=eastwest;whiteSpace=wrap;html=1;fontSize=16;" parent="ckGaQ8mt0c1OZZj6wi1W-81" vertex="1">
          <mxGeometry y="26" width="276" height="26" as="geometry" />
        </mxCell>
        <mxCell id="ckGaQ8mt0c1OZZj6wi1W-83" value="" style="line;strokeWidth=1;fillColor=none;align=left;verticalAlign=middle;spacingTop=-1;spacingLeft=3;spacingRight=3;rotatable=0;labelPosition=right;points=[];portConstraint=eastwest;strokeColor=inherit;" parent="ckGaQ8mt0c1OZZj6wi1W-81" vertex="1">
          <mxGeometry y="52" width="276" height="8" as="geometry" />
        </mxCell>
        <mxCell id="ckGaQ8mt0c1OZZj6wi1W-84" value="&lt;i&gt;+ read(file_path)&lt;/i&gt;" style="text;strokeColor=none;fillColor=none;align=left;verticalAlign=top;spacingLeft=4;spacingRight=4;overflow=hidden;rotatable=0;points=[[0,0.5],[1,0.5]];portConstraint=eastwest;whiteSpace=wrap;html=1;fontSize=16;" parent="ckGaQ8mt0c1OZZj6wi1W-81" vertex="1">
          <mxGeometry y="60" width="276" height="26" as="geometry" />
        </mxCell>
        <mxCell id="ckGaQ8mt0c1OZZj6wi1W-85" value="&lt;i&gt;+ write(file_path, students)&lt;/i&gt;" style="text;strokeColor=none;fillColor=none;align=left;verticalAlign=top;spacingLeft=4;spacingRight=4;overflow=hidden;rotatable=0;points=[[0,0.5],[1,0.5]];portConstraint=eastwest;whiteSpace=wrap;html=1;fontSize=16;" parent="ckGaQ8mt0c1OZZj6wi1W-81" vertex="1">
          <mxGeometry y="86" width="276" height="26" as="geometry" />
        </mxCell>
        <mxCell id="ckGaQ8mt0c1OZZj6wi1W-86" value="&lt;i&gt;+ empty_content()&lt;/i&gt;" style="text;strokeColor=none;fillColor=none;align=left;verticalAlign=top;spacingLeft=4;spacingRight=4;overflow=hidden;rotatable=0;points=[[0,0.5],[1,0.5]];portConstraint=eastwest;whiteSpace=wrap;html=1;fontSize=16;" parent="ckGaQ8mt0c1OZZj6wi1W-81" vertex="1">
          <mxGeometry y="112" width="276" height="26" as="geometry" />
        </mxCell>
        <mxCell id="ckGaQ8mt0c1OZZj6wi1W-87" style="edgeStyle=orthogonalEdgeStyle;rounded=0;orthogonalLoop=1;jettySize=auto;html=1;entryX=0.999;entryY=0.724;entryDx=0;entryDy=0;entryPerimeter=0;strokeWidth=2;endArrow=none;endFill=0;endSize=15;startArrow=diamondThin;startFill=0;startSize=15;exitX=0;exitY=0.5;exitDx=0;exitDy=0;" parent="1" source="7yRF4xjfkNmWZK7dUMPs-40" target="ckGaQ8mt0c1OZZj6wi1W-84" edge="1">
          <mxGeometry relative="1" as="geometry">
            <mxPoint x="1537" y="-2031" as="sourcePoint" />
          </mxGeometry>
        </mxCell>
        <mxCell id="ckGaQ8mt0c1OZZj6wi1W-88" value="StudentListDBAdapter" style="swimlane;fontStyle=1;align=center;verticalAlign=top;childLayout=stackLayout;horizontal=1;startSize=26;horizontalStack=0;resizeParent=1;resizeParentMax=0;resizeLast=0;collapsible=1;marginBottom=0;whiteSpace=wrap;html=1;fontSize=16;" parent="1" vertex="1">
          <mxGeometry x="1430" y="-3169" width="387" height="268" as="geometry" />
        </mxCell>
        <mxCell id="ckGaQ8mt0c1OZZj6wi1W-89" value="&lt;div&gt;- connection: ConnectionDB&lt;/div&gt;" style="text;strokeColor=none;fillColor=none;align=left;verticalAlign=top;spacingLeft=4;spacingRight=4;overflow=hidden;rotatable=0;points=[[0,0.5],[1,0.5]];portConstraint=eastwest;whiteSpace=wrap;html=1;fontSize=16;" parent="ckGaQ8mt0c1OZZj6wi1W-88" vertex="1">
          <mxGeometry y="26" width="387" height="26" as="geometry" />
        </mxCell>
        <mxCell id="ckGaQ8mt0c1OZZj6wi1W-90" value="" style="line;strokeWidth=1;fillColor=none;align=left;verticalAlign=middle;spacingTop=-1;spacingLeft=3;spacingRight=3;rotatable=0;labelPosition=right;points=[];portConstraint=eastwest;strokeColor=inherit;" parent="ckGaQ8mt0c1OZZj6wi1W-88" vertex="1">
          <mxGeometry y="52" width="387" height="8" as="geometry" />
        </mxCell>
        <mxCell id="ckGaQ8mt0c1OZZj6wi1W-91" value="+ get_student_by_id(id)" style="text;strokeColor=none;fillColor=none;align=left;verticalAlign=top;spacingLeft=4;spacingRight=4;overflow=hidden;rotatable=0;points=[[0,0.5],[1,0.5]];portConstraint=eastwest;whiteSpace=wrap;html=1;fontSize=16;" parent="ckGaQ8mt0c1OZZj6wi1W-88" vertex="1">
          <mxGeometry y="60" width="387" height="26" as="geometry" />
        </mxCell>
        <mxCell id="ckGaQ8mt0c1OZZj6wi1W-92" value="+ get_k_n_student_short_list(k, n, data_list = nil)&lt;span style=&quot;color: rgba(0, 0, 0, 0); font-family: monospace; font-size: 0px; text-wrap-mode: nowrap;&quot;&gt;%3CmxGraphModel%3E%3Croot%3E%3CmxCell%20id%3D%220%22%2F%3E%3CmxCell%20id%3D%221%22%20parent%3D%220%22%2F%3E%3CmxCell%20id%3D%222%22%20value%3D%22DataListStudentShort%22%20style%3D%22swimlane%3BfontStyle%3D1%3Balign%3Dcenter%3BverticalAlign%3Dtop%3BchildLayout%3DstackLayout%3Bhorizontal%3D1%3BstartSize%3D26%3BhorizontalStack%3D0%3BresizeParent%3D1%3BresizeParentMax%3D0%3BresizeLast%3D0%3Bcollapsible%3D1%3BmarginBottom%3D0%3BwhiteSpace%3Dwrap%3Bhtml%3D1%3BfontSize%3D16%3B%22%20vertex%3D%221%22%20parent%3D%221%22%3E%3CmxGeometry%20x%3D%22780%22%20y%3D%22-1600%22%20width%3D%22330%22%20height%3D%22112%22%20as%3D%22geometry%22%2F%3E%3C%2FmxCell%3E%3CmxCell%20id%3D%223%22%20value%3D%22%26lt%3Bdiv%26gt%3B%26lt%3Bbr%26gt%3B%26lt%3B%2Fdiv%26gt%3B%26lt%3Bdiv%26gt%3B%26lt%3Bbr%26gt%3B%26lt%3B%2Fdiv%26gt%3B%22%20style%3D%22text%3BstrokeColor%3Dnone%3BfillColor%3Dnone%3Balign%3Dleft%3BverticalAlign%3Dtop%3BspacingLeft%3D4%3BspacingRight%3D4%3Boverflow%3Dhidden%3Brotatable%3D0%3Bpoints%3D%5B%5B0%2C0.5%5D%2C%5B1%2C0.5%5D%5D%3BportConstraint%3Deastwest%3BwhiteSpace%3Dwrap%3Bhtml%3D1%3BfontSize%3D16%3B%22%20vertex%3D%221%22%20parent%3D%222%22%3E%3CmxGeometry%20y%3D%2226%22%20width%3D%22330%22%20height%3D%2226%22%20as%3D%22geometry%22%2F%3E%3C%2FmxCell%3E%3CmxCell%20id%3D%224%22%20value%3D%22%22%20style%3D%22line%3BstrokeWidth%3D1%3BfillColor%3Dnone%3Balign%3Dleft%3BverticalAlign%3Dmiddle%3BspacingTop%3D-1%3BspacingLeft%3D3%3BspacingRight%3D3%3Brotatable%3D0%3BlabelPosition%3Dright%3Bpoints%3D%5B%5D%3BportConstraint%3Deastwest%3BstrokeColor%3Dinherit%3B%22%20vertex%3D%221%22%20parent%3D%222%22%3E%3CmxGeometry%20y%3D%2252%22%20width%3D%22330%22%20height%3D%228%22%20as%3D%22geometry%22%2F%3E%3C%2FmxCell%3E%3CmxCell%20id%3D%225%22%20value%3D%22-%20base_names()%22%20style%3D%22text%3BstrokeColor%3Dnone%3BfillColor%3Dnone%3Balign%3Dleft%3BverticalAlign%3Dtop%3BspacingLeft%3D4%3BspacingRight%3D4%3Boverflow%3Dhidden%3Brotatable%3D0%3Bpoints%3D%5B%5B0%2C0.5%5D%2C%5B1%2C0.5%5D%5D%3BportConstraint%3Deastwest%3BwhiteSpace%3Dwrap%3Bhtml%3D1%3BfontSize%3D16%3B%22%20vertex%3D%221%22%20parent%3D%222%22%3E%3CmxGeometry%20y%3D%2260%22%20width%3D%22330%22%20height%3D%2226%22%20as%3D%22geometry%22%2F%3E%3C%2FmxCell%3E%3CmxCell%20id%3D%226%22%20value%3D%22-%20build_row(student_short%2C%20index)%22%20style%3D%22text%3BstrokeColor%3Dnone%3BfillColor%3Dnone%3Balign%3Dleft%3BverticalAlign%3Dtop%3BspacingLeft%3D4%3BspacingRight%3D4%3Boverflow%3Dhidden%3Brotatable%3D0%3Bpoints%3D%5B%5B0%2C0.5%5D%2C%5B1%2C0.5%5D%5D%3BportConstraint%3Deastwest%3BwhiteSpace%3Dwrap%3Bhtml%3D1%3BfontSize%3D16%3B%22%20vertex%3D%221%22%20parent%3D%222%22%3E%3CmxGeometry%20y%3D%2286%22%20width%3D%22330%22%20height%3D%2226%22%20as%3D%22geometry%22%2F%3E%3C%2FmxCell%3E%3C%2Froot%3E%3C%2FmxGraphModel%3E&lt;/span&gt;" style="text;strokeColor=none;fillColor=none;align=left;verticalAlign=top;spacingLeft=4;spacingRight=4;overflow=hidden;rotatable=0;points=[[0,0.5],[1,0.5]];portConstraint=eastwest;whiteSpace=wrap;html=1;fontSize=16;" parent="ckGaQ8mt0c1OZZj6wi1W-88" vertex="1">
          <mxGeometry y="86" width="387" height="26" as="geometry" />
        </mxCell>
        <mxCell id="ckGaQ8mt0c1OZZj6wi1W-93" value="+ add_student(student)&lt;span style=&quot;color: rgba(0, 0, 0, 0); font-family: monospace; font-size: 0px; text-wrap-mode: nowrap;&quot;&gt;%3CmxGraphModel%3E%3Croot%3E%3CmxCell%20id%3D%220%22%2F%3E%3CmxCell%20id%3D%221%22%20parent%3D%220%22%2F%3E%3CmxCell%20id%3D%222%22%20value%3D%22DataListStudentShort%22%20style%3D%22swimlane%3BfontStyle%3D1%3Balign%3Dcenter%3BverticalAlign%3Dtop%3BchildLayout%3DstackLayout%3Bhorizontal%3D1%3BstartSize%3D26%3BhorizontalStack%3D0%3BresizeParent%3D1%3BresizeParentMax%3D0%3BresizeLast%3D0%3Bcollapsible%3D1%3BmarginBottom%3D0%3BwhiteSpace%3Dwrap%3Bhtml%3D1%3BfontSize%3D16%3B%22%20vertex%3D%221%22%20parent%3D%221%22%3E%3CmxGeometry%20x%3D%22780%22%20y%3D%22-1600%22%20width%3D%22330%22%20height%3D%22112%22%20as%3D%22geometry%22%2F%3E%3C%2FmxCell%3E%3CmxCell%20id%3D%223%22%20value%3D%22%26lt%3Bdiv%26gt%3B%26lt%3Bbr%26gt%3B%26lt%3B%2Fdiv%26gt%3B%26lt%3Bdiv%26gt%3B%26lt%3Bbr%26gt%3B%26lt%3B%2Fdiv%26gt%3B%22%20style%3D%22text%3BstrokeColor%3Dnone%3BfillColor%3Dnone%3Balign%3Dleft%3BverticalAlign%3Dtop%3BspacingLeft%3D4%3BspacingRight%3D4%3Boverflow%3Dhidden%3Brotatable%3D0%3Bpoints%3D%5B%5B0%2C0.5%5D%2C%5B1%2C0.5%5D%5D%3BportConstraint%3Deastwest%3BwhiteSpace%3Dwrap%3Bhtml%3D1%3BfontSize%3D16%3B%22%20vertex%3D%221%22%20parent%3D%222%22%3E%3CmxGeometry%20y%3D%2226%22%20width%3D%22330%22%20height%3D%2226%22%20as%3D%22geometry%22%2F%3E%3C%2FmxCell%3E%3CmxCell%20id%3D%224%22%20value%3D%22%22%20style%3D%22line%3BstrokeWidth%3D1%3BfillColor%3Dnone%3Balign%3Dleft%3BverticalAlign%3Dmiddle%3BspacingTop%3D-1%3BspacingLeft%3D3%3BspacingRight%3D3%3Brotatable%3D0%3BlabelPosition%3Dright%3Bpoints%3D%5B%5D%3BportConstraint%3Deastwest%3BstrokeColor%3Dinherit%3B%22%20vertex%3D%221%22%20parent%3D%222%22%3E%3CmxGeometry%20y%3D%2252%22%20width%3D%22330%22%20height%3D%228%22%20as%3D%22geometry%22%2F%3E%3C%2FmxCell%3E%3CmxCell%20id%3D%225%22%20value%3D%22-%20base_names()%22%20style%3D%22text%3BstrokeColor%3Dnone%3BfillColor%3Dnone%3Balign%3Dleft%3BverticalAlign%3Dtop%3BspacingLeft%3D4%3BspacingRight%3D4%3Boverflow%3Dhidden%3Brotatable%3D0%3Bpoints%3D%5B%5B0%2C0.5%5D%2C%5B1%2C0.5%5D%5D%3BportConstraint%3Deastwest%3BwhiteSpace%3Dwrap%3Bhtml%3D1%3BfontSize%3D16%3B%22%20vertex%3D%221%22%20parent%3D%222%22%3E%3CmxGeometry%20y%3D%2260%22%20width%3D%22330%22%20height%3D%2226%22%20as%3D%22geometry%22%2F%3E%3C%2FmxCell%3E%3CmxCell%20id%3D%226%22%20value%3D%22-%20build_row(student_short%2C%20index)%22%20style%3D%22text%3BstrokeColor%3Dnone%3BfillColor%3Dnone%3Balign%3Dleft%3BverticalAlign%3Dtop%3BspacingLeft%3D4%3BspacingRight%3D4%3Boverflow%3Dhidden%3Brotatable%3D0%3Bpoints%3D%5B%5B0%2C0.5%5D%2C%5B1%2C0.5%5D%5D%3BportConstraint%3Deastwest%3BwhiteSpace%3Dwrap%3Bhtml%3D1%3BfontSize%3D16%3B%22%20vertex%3D%221%22%20parent%3D%222%22%3E%3CmxGeometry%20y%3D%2286%22%20width%3D%22330%22%20height%3D%2226%22%20as%3D%22geometry%22%2F%3E%3C%2FmxCell%3E%3C%2Froot%3E%3C%2FmxGraphModel%3E&lt;/span&gt;" style="text;strokeColor=none;fillColor=none;align=left;verticalAlign=top;spacingLeft=4;spacingRight=4;overflow=hidden;rotatable=0;points=[[0,0.5],[1,0.5]];portConstraint=eastwest;whiteSpace=wrap;html=1;fontSize=16;" parent="ckGaQ8mt0c1OZZj6wi1W-88" vertex="1">
          <mxGeometry y="112" width="387" height="26" as="geometry" />
        </mxCell>
        <mxCell id="ckGaQ8mt0c1OZZj6wi1W-94" value="+&amp;nbsp;replace_student_by_id(id, new_student)" style="text;strokeColor=none;fillColor=none;align=left;verticalAlign=top;spacingLeft=4;spacingRight=4;overflow=hidden;rotatable=0;points=[[0,0.5],[1,0.5]];portConstraint=eastwest;whiteSpace=wrap;html=1;fontSize=16;" parent="ckGaQ8mt0c1OZZj6wi1W-88" vertex="1">
          <mxGeometry y="138" width="387" height="26" as="geometry" />
        </mxCell>
        <mxCell id="ckGaQ8mt0c1OZZj6wi1W-95" value="+&amp;nbsp;delete_student_by_id(id)" style="text;strokeColor=none;fillColor=none;align=left;verticalAlign=top;spacingLeft=4;spacingRight=4;overflow=hidden;rotatable=0;points=[[0,0.5],[1,0.5]];portConstraint=eastwest;whiteSpace=wrap;html=1;fontSize=16;" parent="ckGaQ8mt0c1OZZj6wi1W-88" vertex="1">
          <mxGeometry y="164" width="387" height="26" as="geometry" />
        </mxCell>
        <mxCell id="ckGaQ8mt0c1OZZj6wi1W-96" value="+ get_student_short_count()" style="text;strokeColor=none;fillColor=none;align=left;verticalAlign=top;spacingLeft=4;spacingRight=4;overflow=hidden;rotatable=0;points=[[0,0.5],[1,0.5]];portConstraint=eastwest;whiteSpace=wrap;html=1;fontSize=16;" parent="ckGaQ8mt0c1OZZj6wi1W-88" vertex="1">
          <mxGeometry y="190" width="387" height="26" as="geometry" />
        </mxCell>
        <mxCell id="ckGaQ8mt0c1OZZj6wi1W-98" value="+&amp;nbsp;close()" style="text;strokeColor=none;fillColor=none;align=left;verticalAlign=top;spacingLeft=4;spacingRight=4;overflow=hidden;rotatable=0;points=[[0,0.5],[1,0.5]];portConstraint=eastwest;whiteSpace=wrap;html=1;fontSize=16;" parent="ckGaQ8mt0c1OZZj6wi1W-88" vertex="1">
          <mxGeometry y="216" width="387" height="26" as="geometry" />
        </mxCell>
        <mxCell id="ckGaQ8mt0c1OZZj6wi1W-97" value="-&amp;nbsp;connection: attr_accessor" style="text;strokeColor=none;fillColor=none;align=left;verticalAlign=top;spacingLeft=4;spacingRight=4;overflow=hidden;rotatable=0;points=[[0,0.5],[1,0.5]];portConstraint=eastwest;whiteSpace=wrap;html=1;fontSize=16;" parent="ckGaQ8mt0c1OZZj6wi1W-88" vertex="1">
          <mxGeometry y="242" width="387" height="26" as="geometry" />
        </mxCell>
        <mxCell id="ckGaQ8mt0c1OZZj6wi1W-99" value="ConnectionDB" style="swimlane;fontStyle=1;align=center;verticalAlign=top;childLayout=stackLayout;horizontal=1;startSize=26;horizontalStack=0;resizeParent=1;resizeParentMax=0;resizeLast=0;collapsible=1;marginBottom=0;whiteSpace=wrap;html=1;fontSize=16;" parent="1" vertex="1">
          <mxGeometry x="1025" y="-3169" width="330" height="216" as="geometry" />
        </mxCell>
        <mxCell id="ckGaQ8mt0c1OZZj6wi1W-100" value="&lt;div&gt;- connection: ConnectionDB&lt;/div&gt;" style="text;strokeColor=none;fillColor=none;align=left;verticalAlign=top;spacingLeft=4;spacingRight=4;overflow=hidden;rotatable=0;points=[[0,0.5],[1,0.5]];portConstraint=eastwest;whiteSpace=wrap;html=1;fontSize=16;" parent="ckGaQ8mt0c1OZZj6wi1W-99" vertex="1">
          <mxGeometry y="26" width="330" height="26" as="geometry" />
        </mxCell>
        <mxCell id="ckGaQ8mt0c1OZZj6wi1W-101" value="" style="line;strokeWidth=1;fillColor=none;align=left;verticalAlign=middle;spacingTop=-1;spacingLeft=3;spacingRight=3;rotatable=0;labelPosition=right;points=[];portConstraint=eastwest;strokeColor=inherit;" parent="ckGaQ8mt0c1OZZj6wi1W-99" vertex="1">
          <mxGeometry y="52" width="330" height="8" as="geometry" />
        </mxCell>
        <mxCell id="ckGaQ8mt0c1OZZj6wi1W-102" value="+ instance(Hash): Connection" style="text;strokeColor=none;fillColor=none;align=left;verticalAlign=top;spacingLeft=4;spacingRight=4;overflow=hidden;rotatable=0;points=[[0,0.5],[1,0.5]];portConstraint=eastwest;whiteSpace=wrap;html=1;fontSize=16;" parent="ckGaQ8mt0c1OZZj6wi1W-99" vertex="1">
          <mxGeometry y="60" width="330" height="26" as="geometry" />
        </mxCell>
        <mxCell id="ckGaQ8mt0c1OZZj6wi1W-103" value="+ query(query, params=[])" style="text;strokeColor=none;fillColor=none;align=left;verticalAlign=top;spacingLeft=4;spacingRight=4;overflow=hidden;rotatable=0;points=[[0,0.5],[1,0.5]];portConstraint=eastwest;whiteSpace=wrap;html=1;fontSize=16;" parent="ckGaQ8mt0c1OZZj6wi1W-99" vertex="1">
          <mxGeometry y="86" width="330" height="26" as="geometry" />
        </mxCell>
        <mxCell id="ckGaQ8mt0c1OZZj6wi1W-104" value="+ close" style="text;strokeColor=none;fillColor=none;align=left;verticalAlign=top;spacingLeft=4;spacingRight=4;overflow=hidden;rotatable=0;points=[[0,0.5],[1,0.5]];portConstraint=eastwest;whiteSpace=wrap;html=1;fontSize=16;" parent="ckGaQ8mt0c1OZZj6wi1W-99" vertex="1">
          <mxGeometry y="112" width="330" height="26" as="geometry" />
        </mxCell>
        <mxCell id="ckGaQ8mt0c1OZZj6wi1W-105" value="-&amp;nbsp;connection: attr_accessor" style="text;strokeColor=none;fillColor=none;align=left;verticalAlign=top;spacingLeft=4;spacingRight=4;overflow=hidden;rotatable=0;points=[[0,0.5],[1,0.5]];portConstraint=eastwest;whiteSpace=wrap;html=1;fontSize=16;" parent="ckGaQ8mt0c1OZZj6wi1W-99" vertex="1">
          <mxGeometry y="138" width="330" height="26" as="geometry" />
        </mxCell>
        <mxCell id="ckGaQ8mt0c1OZZj6wi1W-106" value="- initialize(db_config)" style="text;strokeColor=none;fillColor=none;align=left;verticalAlign=top;spacingLeft=4;spacingRight=4;overflow=hidden;rotatable=0;points=[[0,0.5],[1,0.5]];portConstraint=eastwest;whiteSpace=wrap;html=1;fontSize=16;" parent="ckGaQ8mt0c1OZZj6wi1W-99" vertex="1">
          <mxGeometry y="164" width="330" height="26" as="geometry" />
        </mxCell>
        <mxCell id="ckGaQ8mt0c1OZZj6wi1W-107" value="- new()" style="text;strokeColor=none;fillColor=none;align=left;verticalAlign=top;spacingLeft=4;spacingRight=4;overflow=hidden;rotatable=0;points=[[0,0.5],[1,0.5]];portConstraint=eastwest;whiteSpace=wrap;html=1;fontSize=16;" parent="ckGaQ8mt0c1OZZj6wi1W-99" vertex="1">
          <mxGeometry y="190" width="330" height="26" as="geometry" />
        </mxCell>
        <mxCell id="ckGaQ8mt0c1OZZj6wi1W-108" style="edgeStyle=orthogonalEdgeStyle;rounded=0;orthogonalLoop=1;jettySize=auto;html=1;exitX=0;exitY=0.5;exitDx=0;exitDy=0;entryX=1;entryY=0.5;entryDx=0;entryDy=0;dashed=1;strokeWidth=2;endArrow=open;endFill=0;endSize=15;" parent="1" source="ckGaQ8mt0c1OZZj6wi1W-93" target="ckGaQ8mt0c1OZZj6wi1W-104" edge="1">
          <mxGeometry relative="1" as="geometry" />
        </mxCell>
        <mxCell id="ckGaQ8mt0c1OZZj6wi1W-111" style="edgeStyle=orthogonalEdgeStyle;rounded=0;orthogonalLoop=1;jettySize=auto;html=1;exitX=0;exitY=0.5;exitDx=0;exitDy=0;entryX=0.131;entryY=1;entryDx=0;entryDy=0;entryPerimeter=0;dashed=1;strokeWidth=2;startArrow=open;startFill=0;endArrow=none;endFill=0;endSize=6;startSize=15;" parent="1" source="ckGaQ8mt0c1OZZj6wi1W-5" target="ckGaQ8mt0c1OZZj6wi1W-97" edge="1">
          <mxGeometry relative="1" as="geometry" />
        </mxCell>
        <mxCell id="7yRF4xjfkNmWZK7dUMPs-1" value="Node" style="swimlane;fontStyle=1;align=center;verticalAlign=top;childLayout=stackLayout;horizontal=1;startSize=26;horizontalStack=0;resizeParent=1;resizeParentMax=0;resizeLast=0;collapsible=1;marginBottom=0;whiteSpace=wrap;html=1;fontSize=16;" vertex="1" parent="1">
          <mxGeometry x="1066" y="-1601" width="276" height="264" as="geometry" />
        </mxCell>
        <mxCell id="7yRF4xjfkNmWZK7dUMPs-4" value="- value: Object?" style="text;strokeColor=none;fillColor=none;align=left;verticalAlign=top;spacingLeft=4;spacingRight=4;overflow=hidden;rotatable=0;points=[[0,0.5],[1,0.5]];portConstraint=eastwest;whiteSpace=wrap;html=1;fontSize=16;" vertex="1" parent="7yRF4xjfkNmWZK7dUMPs-1">
          <mxGeometry y="26" width="276" height="26" as="geometry" />
        </mxCell>
        <mxCell id="7yRF4xjfkNmWZK7dUMPs-6" value="- left: Node?" style="text;strokeColor=none;fillColor=none;align=left;verticalAlign=top;spacingLeft=4;spacingRight=4;overflow=hidden;rotatable=0;points=[[0,0.5],[1,0.5]];portConstraint=eastwest;whiteSpace=wrap;html=1;fontSize=16;" vertex="1" parent="7yRF4xjfkNmWZK7dUMPs-1">
          <mxGeometry y="52" width="276" height="26" as="geometry" />
        </mxCell>
        <mxCell id="7yRF4xjfkNmWZK7dUMPs-5" value="- right: Node?" style="text;strokeColor=none;fillColor=none;align=left;verticalAlign=top;spacingLeft=4;spacingRight=4;overflow=hidden;rotatable=0;points=[[0,0.5],[1,0.5]];portConstraint=eastwest;whiteSpace=wrap;html=1;fontSize=16;" vertex="1" parent="7yRF4xjfkNmWZK7dUMPs-1">
          <mxGeometry y="78" width="276" height="26" as="geometry" />
        </mxCell>
        <mxCell id="7yRF4xjfkNmWZK7dUMPs-7" value="- parent: Node?" style="text;strokeColor=none;fillColor=none;align=left;verticalAlign=top;spacingLeft=4;spacingRight=4;overflow=hidden;rotatable=0;points=[[0,0.5],[1,0.5]];portConstraint=eastwest;whiteSpace=wrap;html=1;fontSize=16;" vertex="1" parent="7yRF4xjfkNmWZK7dUMPs-1">
          <mxGeometry y="104" width="276" height="26" as="geometry" />
        </mxCell>
        <mxCell id="7yRF4xjfkNmWZK7dUMPs-3" value="" style="line;strokeWidth=1;fillColor=none;align=left;verticalAlign=middle;spacingTop=-1;spacingLeft=3;spacingRight=3;rotatable=0;labelPosition=right;points=[];portConstraint=eastwest;strokeColor=inherit;" vertex="1" parent="7yRF4xjfkNmWZK7dUMPs-1">
          <mxGeometry y="130" width="276" height="30" as="geometry" />
        </mxCell>
        <mxCell id="7yRF4xjfkNmWZK7dUMPs-8" value="+ value: attr_accessor" style="text;strokeColor=none;fillColor=none;align=left;verticalAlign=top;spacingLeft=4;spacingRight=4;overflow=hidden;rotatable=0;points=[[0,0.5],[1,0.5]];portConstraint=eastwest;whiteSpace=wrap;html=1;fontSize=16;" vertex="1" parent="7yRF4xjfkNmWZK7dUMPs-1">
          <mxGeometry y="160" width="276" height="26" as="geometry" />
        </mxCell>
        <mxCell id="7yRF4xjfkNmWZK7dUMPs-9" value="+ left: attr_accessor" style="text;strokeColor=none;fillColor=none;align=left;verticalAlign=top;spacingLeft=4;spacingRight=4;overflow=hidden;rotatable=0;points=[[0,0.5],[1,0.5]];portConstraint=eastwest;whiteSpace=wrap;html=1;fontSize=16;" vertex="1" parent="7yRF4xjfkNmWZK7dUMPs-1">
          <mxGeometry y="186" width="276" height="26" as="geometry" />
        </mxCell>
        <mxCell id="7yRF4xjfkNmWZK7dUMPs-10" value="+ right: attr_accessor" style="text;strokeColor=none;fillColor=none;align=left;verticalAlign=top;spacingLeft=4;spacingRight=4;overflow=hidden;rotatable=0;points=[[0,0.5],[1,0.5]];portConstraint=eastwest;whiteSpace=wrap;html=1;fontSize=16;" vertex="1" parent="7yRF4xjfkNmWZK7dUMPs-1">
          <mxGeometry y="212" width="276" height="26" as="geometry" />
        </mxCell>
        <mxCell id="7yRF4xjfkNmWZK7dUMPs-11" value="+ parent: attr_accessor" style="text;strokeColor=none;fillColor=none;align=left;verticalAlign=top;spacingLeft=4;spacingRight=4;overflow=hidden;rotatable=0;points=[[0,0.5],[1,0.5]];portConstraint=eastwest;whiteSpace=wrap;html=1;fontSize=16;" vertex="1" parent="7yRF4xjfkNmWZK7dUMPs-1">
          <mxGeometry y="238" width="276" height="26" as="geometry" />
        </mxCell>
        <mxCell id="7yRF4xjfkNmWZK7dUMPs-12" value="BinaryTree" style="swimlane;fontStyle=1;align=center;verticalAlign=top;childLayout=stackLayout;horizontal=1;startSize=26;horizontalStack=0;resizeParent=1;resizeParentMax=0;resizeLast=0;collapsible=1;marginBottom=0;whiteSpace=wrap;html=1;fontSize=16;" vertex="1" parent="1">
          <mxGeometry x="1414" y="-1601" width="276" height="186" as="geometry" />
        </mxCell>
        <mxCell id="7yRF4xjfkNmWZK7dUMPs-13" value="- root: Node" style="text;strokeColor=none;fillColor=none;align=left;verticalAlign=top;spacingLeft=4;spacingRight=4;overflow=hidden;rotatable=0;points=[[0,0.5],[1,0.5]];portConstraint=eastwest;whiteSpace=wrap;html=1;fontSize=16;" vertex="1" parent="7yRF4xjfkNmWZK7dUMPs-12">
          <mxGeometry y="26" width="276" height="26" as="geometry" />
        </mxCell>
        <mxCell id="7yRF4xjfkNmWZK7dUMPs-17" value="" style="line;strokeWidth=1;fillColor=none;align=left;verticalAlign=middle;spacingTop=-1;spacingLeft=3;spacingRight=3;rotatable=0;labelPosition=right;points=[];portConstraint=eastwest;strokeColor=inherit;" vertex="1" parent="7yRF4xjfkNmWZK7dUMPs-12">
          <mxGeometry y="52" width="276" height="30" as="geometry" />
        </mxCell>
        <mxCell id="7yRF4xjfkNmWZK7dUMPs-18" value="+ root: attr_accessor" style="text;strokeColor=none;fillColor=none;align=left;verticalAlign=top;spacingLeft=4;spacingRight=4;overflow=hidden;rotatable=0;points=[[0,0.5],[1,0.5]];portConstraint=eastwest;whiteSpace=wrap;html=1;fontSize=16;" vertex="1" parent="7yRF4xjfkNmWZK7dUMPs-12">
          <mxGeometry y="82" width="276" height="26" as="geometry" />
        </mxCell>
        <mxCell id="7yRF4xjfkNmWZK7dUMPs-19" value="+ add(Node)" style="text;strokeColor=none;fillColor=none;align=left;verticalAlign=top;spacingLeft=4;spacingRight=4;overflow=hidden;rotatable=0;points=[[0,0.5],[1,0.5]];portConstraint=eastwest;whiteSpace=wrap;html=1;fontSize=16;" vertex="1" parent="7yRF4xjfkNmWZK7dUMPs-12">
          <mxGeometry y="108" width="276" height="26" as="geometry" />
        </mxCell>
        <mxCell id="7yRF4xjfkNmWZK7dUMPs-20" value="+ iterator()" style="text;strokeColor=none;fillColor=none;align=left;verticalAlign=top;spacingLeft=4;spacingRight=4;overflow=hidden;rotatable=0;points=[[0,0.5],[1,0.5]];portConstraint=eastwest;whiteSpace=wrap;html=1;fontSize=16;" vertex="1" parent="7yRF4xjfkNmWZK7dUMPs-12">
          <mxGeometry y="134" width="276" height="26" as="geometry" />
        </mxCell>
        <mxCell id="7yRF4xjfkNmWZK7dUMPs-21" value="+ insert(root, Node)" style="text;strokeColor=none;fillColor=none;align=left;verticalAlign=top;spacingLeft=4;spacingRight=4;overflow=hidden;rotatable=0;points=[[0,0.5],[1,0.5]];portConstraint=eastwest;whiteSpace=wrap;html=1;fontSize=16;" vertex="1" parent="7yRF4xjfkNmWZK7dUMPs-12">
          <mxGeometry y="160" width="276" height="26" as="geometry" />
        </mxCell>
        <mxCell id="7yRF4xjfkNmWZK7dUMPs-22" style="edgeStyle=orthogonalEdgeStyle;rounded=0;orthogonalLoop=1;jettySize=auto;html=1;entryX=0;entryY=0.5;entryDx=0;entryDy=0;strokeWidth=2;endArrow=diamondThin;endFill=0;endSize=15;exitX=0.997;exitY=0.658;exitDx=0;exitDy=0;exitPerimeter=0;" edge="1" parent="1" source="7yRF4xjfkNmWZK7dUMPs-5" target="7yRF4xjfkNmWZK7dUMPs-18">
          <mxGeometry relative="1" as="geometry" />
        </mxCell>
        <mxCell id="7yRF4xjfkNmWZK7dUMPs-23" value="BinaryTreeIterator" style="swimlane;fontStyle=1;align=center;verticalAlign=top;childLayout=stackLayout;horizontal=1;startSize=26;horizontalStack=0;resizeParent=1;resizeParentMax=0;resizeLast=0;collapsible=1;marginBottom=0;whiteSpace=wrap;html=1;fontSize=16;" vertex="1" parent="1">
          <mxGeometry x="1821" y="-1601" width="276" height="134" as="geometry" />
        </mxCell>
        <mxCell id="7yRF4xjfkNmWZK7dUMPs-24" value="- root: Node" style="text;strokeColor=none;fillColor=none;align=left;verticalAlign=top;spacingLeft=4;spacingRight=4;overflow=hidden;rotatable=0;points=[[0,0.5],[1,0.5]];portConstraint=eastwest;whiteSpace=wrap;html=1;fontSize=16;" vertex="1" parent="7yRF4xjfkNmWZK7dUMPs-23">
          <mxGeometry y="26" width="276" height="26" as="geometry" />
        </mxCell>
        <mxCell id="7yRF4xjfkNmWZK7dUMPs-25" value="" style="line;strokeWidth=1;fillColor=none;align=left;verticalAlign=middle;spacingTop=-1;spacingLeft=3;spacingRight=3;rotatable=0;labelPosition=right;points=[];portConstraint=eastwest;strokeColor=inherit;" vertex="1" parent="7yRF4xjfkNmWZK7dUMPs-23">
          <mxGeometry y="52" width="276" height="30" as="geometry" />
        </mxCell>
        <mxCell id="7yRF4xjfkNmWZK7dUMPs-26" value="+ each(&amp;amp;block)" style="text;strokeColor=none;fillColor=none;align=left;verticalAlign=top;spacingLeft=4;spacingRight=4;overflow=hidden;rotatable=0;points=[[0,0.5],[1,0.5]];portConstraint=eastwest;whiteSpace=wrap;html=1;fontSize=16;" vertex="1" parent="7yRF4xjfkNmWZK7dUMPs-23">
          <mxGeometry y="82" width="276" height="26" as="geometry" />
        </mxCell>
        <mxCell id="7yRF4xjfkNmWZK7dUMPs-27" value="- traverse_in_order(Node, &amp;amp;block)" style="text;strokeColor=none;fillColor=none;align=left;verticalAlign=top;spacingLeft=4;spacingRight=4;overflow=hidden;rotatable=0;points=[[0,0.5],[1,0.5]];portConstraint=eastwest;whiteSpace=wrap;html=1;fontSize=16;" vertex="1" parent="7yRF4xjfkNmWZK7dUMPs-23">
          <mxGeometry y="108" width="276" height="26" as="geometry" />
        </mxCell>
        <mxCell id="7yRF4xjfkNmWZK7dUMPs-30" style="edgeStyle=orthogonalEdgeStyle;rounded=0;orthogonalLoop=1;jettySize=auto;html=1;entryX=0;entryY=0.5;entryDx=0;entryDy=0;strokeWidth=2;endArrow=open;endFill=0;dashed=1;endSize=15;" edge="1" parent="1" source="7yRF4xjfkNmWZK7dUMPs-18" target="7yRF4xjfkNmWZK7dUMPs-26">
          <mxGeometry relative="1" as="geometry" />
        </mxCell>
        <mxCell id="7yRF4xjfkNmWZK7dUMPs-96" style="edgeStyle=orthogonalEdgeStyle;rounded=0;orthogonalLoop=1;jettySize=auto;html=1;entryX=0.5;entryY=0;entryDx=0;entryDy=0;strokeWidth=2;dashed=1;endArrow=open;endFill=0;endSize=15;" edge="1" parent="1" source="7yRF4xjfkNmWZK7dUMPs-31" target="7yRF4xjfkNmWZK7dUMPs-12">
          <mxGeometry relative="1" as="geometry" />
        </mxCell>
        <mxCell id="7yRF4xjfkNmWZK7dUMPs-31" value="StudentsListFile" style="swimlane;fontStyle=1;align=center;verticalAlign=top;childLayout=stackLayout;horizontal=1;startSize=26;horizontalStack=0;resizeParent=1;resizeParentMax=0;resizeLast=0;collapsible=1;marginBottom=0;whiteSpace=wrap;html=1;fontSize=16;" vertex="1" parent="1">
          <mxGeometry x="1588" y="-2294" width="363" height="528" as="geometry" />
        </mxCell>
        <mxCell id="7yRF4xjfkNmWZK7dUMPs-32" value="- file_path: String" style="text;strokeColor=none;fillColor=none;align=left;verticalAlign=top;spacingLeft=4;spacingRight=4;overflow=hidden;rotatable=0;points=[[0,0.5],[1,0.5]];portConstraint=eastwest;whiteSpace=wrap;html=1;fontSize=16;" vertex="1" parent="7yRF4xjfkNmWZK7dUMPs-31">
          <mxGeometry y="26" width="363" height="26" as="geometry" />
        </mxCell>
        <mxCell id="7yRF4xjfkNmWZK7dUMPs-33" value="- students: Student[]" style="text;strokeColor=none;fillColor=none;align=left;verticalAlign=top;spacingLeft=4;spacingRight=4;overflow=hidden;rotatable=0;points=[[0,0.5],[1,0.5]];portConstraint=eastwest;whiteSpace=wrap;html=1;fontSize=16;" vertex="1" parent="7yRF4xjfkNmWZK7dUMPs-31">
          <mxGeometry y="52" width="363" height="26" as="geometry" />
        </mxCell>
        <mxCell id="7yRF4xjfkNmWZK7dUMPs-49" value="- strategy: StudentsListStrategy" style="text;strokeColor=none;fillColor=none;align=left;verticalAlign=top;spacingLeft=4;spacingRight=4;overflow=hidden;rotatable=0;points=[[0,0.5],[1,0.5]];portConstraint=eastwest;whiteSpace=wrap;html=1;fontSize=16;" vertex="1" parent="7yRF4xjfkNmWZK7dUMPs-31">
          <mxGeometry y="78" width="363" height="26" as="geometry" />
        </mxCell>
        <mxCell id="7yRF4xjfkNmWZK7dUMPs-34" value="" style="line;strokeWidth=1;fillColor=none;align=left;verticalAlign=middle;spacingTop=-1;spacingLeft=3;spacingRight=3;rotatable=0;labelPosition=right;points=[];portConstraint=eastwest;strokeColor=inherit;" vertex="1" parent="7yRF4xjfkNmWZK7dUMPs-31">
          <mxGeometry y="104" width="363" height="8" as="geometry" />
        </mxCell>
        <mxCell id="7yRF4xjfkNmWZK7dUMPs-35" value="+ initialize(file_path, strategy)" style="text;strokeColor=none;fillColor=none;align=left;verticalAlign=top;spacingLeft=4;spacingRight=4;overflow=hidden;rotatable=0;points=[[0,0.5],[1,0.5]];portConstraint=eastwest;whiteSpace=wrap;html=1;fontSize=16;" vertex="1" parent="7yRF4xjfkNmWZK7dUMPs-31">
          <mxGeometry y="112" width="363" height="26" as="geometry" />
        </mxCell>
        <mxCell id="7yRF4xjfkNmWZK7dUMPs-47" value="+ read()" style="text;strokeColor=none;fillColor=none;align=left;verticalAlign=top;spacingLeft=4;spacingRight=4;overflow=hidden;rotatable=0;points=[[0,0.5],[1,0.5]];portConstraint=eastwest;whiteSpace=wrap;html=1;fontSize=16;" vertex="1" parent="7yRF4xjfkNmWZK7dUMPs-31">
          <mxGeometry y="138" width="363" height="26" as="geometry" />
        </mxCell>
        <mxCell id="7yRF4xjfkNmWZK7dUMPs-46" value="+ write()" style="text;strokeColor=none;fillColor=none;align=left;verticalAlign=top;spacingLeft=4;spacingRight=4;overflow=hidden;rotatable=0;points=[[0,0.5],[1,0.5]];portConstraint=eastwest;whiteSpace=wrap;html=1;fontSize=16;" vertex="1" parent="7yRF4xjfkNmWZK7dUMPs-31">
          <mxGeometry y="164" width="363" height="26" as="geometry" />
        </mxCell>
        <mxCell id="7yRF4xjfkNmWZK7dUMPs-36" value="+ get_student_by_id(id)" style="text;strokeColor=none;fillColor=none;align=left;verticalAlign=top;spacingLeft=4;spacingRight=4;overflow=hidden;rotatable=0;points=[[0,0.5],[1,0.5]];portConstraint=eastwest;whiteSpace=wrap;html=1;fontSize=16;" vertex="1" parent="7yRF4xjfkNmWZK7dUMPs-31">
          <mxGeometry y="190" width="363" height="26" as="geometry" />
        </mxCell>
        <mxCell id="7yRF4xjfkNmWZK7dUMPs-37" value="+ get_k_n_student_short_list(k, n, data_list = nil)" style="text;strokeColor=none;fillColor=none;align=left;verticalAlign=top;spacingLeft=4;spacingRight=4;overflow=hidden;rotatable=0;points=[[0,0.5],[1,0.5]];portConstraint=eastwest;whiteSpace=wrap;html=1;fontSize=16;" vertex="1" parent="7yRF4xjfkNmWZK7dUMPs-31">
          <mxGeometry y="216" width="363" height="26" as="geometry" />
        </mxCell>
        <mxCell id="7yRF4xjfkNmWZK7dUMPs-38" value="+ sort_by_initials()" style="text;strokeColor=none;fillColor=none;align=left;verticalAlign=top;spacingLeft=4;spacingRight=4;overflow=hidden;rotatable=0;points=[[0,0.5],[1,0.5]];portConstraint=eastwest;whiteSpace=wrap;html=1;fontSize=16;" vertex="1" parent="7yRF4xjfkNmWZK7dUMPs-31">
          <mxGeometry y="242" width="363" height="26" as="geometry" />
        </mxCell>
        <mxCell id="7yRF4xjfkNmWZK7dUMPs-39" value="+ add_student(student)" style="text;strokeColor=none;fillColor=none;align=left;verticalAlign=top;spacingLeft=4;spacingRight=4;overflow=hidden;rotatable=0;points=[[0,0.5],[1,0.5]];portConstraint=eastwest;whiteSpace=wrap;html=1;fontSize=16;" vertex="1" parent="7yRF4xjfkNmWZK7dUMPs-31">
          <mxGeometry y="268" width="363" height="26" as="geometry" />
        </mxCell>
        <mxCell id="7yRF4xjfkNmWZK7dUMPs-62" value="- unique?(student)" style="text;strokeColor=none;fillColor=none;align=left;verticalAlign=top;spacingLeft=4;spacingRight=4;overflow=hidden;rotatable=0;points=[[0,0.5],[1,0.5]];portConstraint=eastwest;whiteSpace=wrap;html=1;fontSize=16;" vertex="1" parent="7yRF4xjfkNmWZK7dUMPs-31">
          <mxGeometry y="294" width="363" height="26" as="geometry" />
        </mxCell>
        <mxCell id="7yRF4xjfkNmWZK7dUMPs-40" value="+ replace_student_by_id(id, new_student)" style="text;strokeColor=none;fillColor=none;align=left;verticalAlign=top;spacingLeft=4;spacingRight=4;overflow=hidden;rotatable=0;points=[[0,0.5],[1,0.5]];portConstraint=eastwest;whiteSpace=wrap;html=1;fontSize=16;" vertex="1" parent="7yRF4xjfkNmWZK7dUMPs-31">
          <mxGeometry y="320" width="363" height="26" as="geometry" />
        </mxCell>
        <mxCell id="7yRF4xjfkNmWZK7dUMPs-41" value="+ delete_student_by_id(id)" style="text;strokeColor=none;fillColor=none;align=left;verticalAlign=top;spacingLeft=4;spacingRight=4;overflow=hidden;rotatable=0;points=[[0,0.5],[1,0.5]];portConstraint=eastwest;whiteSpace=wrap;html=1;fontSize=16;" vertex="1" parent="7yRF4xjfkNmWZK7dUMPs-31">
          <mxGeometry y="346" width="363" height="26" as="geometry" />
        </mxCell>
        <mxCell id="7yRF4xjfkNmWZK7dUMPs-42" value="+ get_student_short_count" style="text;strokeColor=none;fillColor=none;align=left;verticalAlign=top;spacingLeft=4;spacingRight=4;overflow=hidden;rotatable=0;points=[[0,0.5],[1,0.5]];portConstraint=eastwest;whiteSpace=wrap;html=1;fontSize=16;" vertex="1" parent="7yRF4xjfkNmWZK7dUMPs-31">
          <mxGeometry y="372" width="363" height="26" as="geometry" />
        </mxCell>
        <mxCell id="7yRF4xjfkNmWZK7dUMPs-43" value="- file_path: attr_accessor" style="text;strokeColor=none;fillColor=none;align=left;verticalAlign=top;spacingLeft=4;spacingRight=4;overflow=hidden;rotatable=0;points=[[0,0.5],[1,0.5]];portConstraint=eastwest;whiteSpace=wrap;html=1;fontSize=16;" vertex="1" parent="7yRF4xjfkNmWZK7dUMPs-31">
          <mxGeometry y="398" width="363" height="26" as="geometry" />
        </mxCell>
        <mxCell id="7yRF4xjfkNmWZK7dUMPs-44" value="- students: attr_accessor" style="text;strokeColor=none;fillColor=none;align=left;verticalAlign=top;spacingLeft=4;spacingRight=4;overflow=hidden;rotatable=0;points=[[0,0.5],[1,0.5]];portConstraint=eastwest;whiteSpace=wrap;html=1;fontSize=16;" vertex="1" parent="7yRF4xjfkNmWZK7dUMPs-31">
          <mxGeometry y="424" width="363" height="26" as="geometry" />
        </mxCell>
        <mxCell id="7yRF4xjfkNmWZK7dUMPs-63" value="- strategy: attr_accessor" style="text;strokeColor=none;fillColor=none;align=left;verticalAlign=top;spacingLeft=4;spacingRight=4;overflow=hidden;rotatable=0;points=[[0,0.5],[1,0.5]];portConstraint=eastwest;whiteSpace=wrap;html=1;fontSize=16;" vertex="1" parent="7yRF4xjfkNmWZK7dUMPs-31">
          <mxGeometry y="450" width="363" height="26" as="geometry" />
        </mxCell>
        <mxCell id="7yRF4xjfkNmWZK7dUMPs-45" value="- create_empty_file_if_not_exists()" style="text;strokeColor=none;fillColor=none;align=left;verticalAlign=top;spacingLeft=4;spacingRight=4;overflow=hidden;rotatable=0;points=[[0,0.5],[1,0.5]];portConstraint=eastwest;whiteSpace=wrap;html=1;fontSize=16;" vertex="1" parent="7yRF4xjfkNmWZK7dUMPs-31">
          <mxGeometry y="476" width="363" height="26" as="geometry" />
        </mxCell>
        <mxCell id="7yRF4xjfkNmWZK7dUMPs-48" value="- empty_content" style="text;strokeColor=none;fillColor=none;align=left;verticalAlign=top;spacingLeft=4;spacingRight=4;overflow=hidden;rotatable=0;points=[[0,0.5],[1,0.5]];portConstraint=eastwest;whiteSpace=wrap;html=1;fontSize=16;" vertex="1" parent="7yRF4xjfkNmWZK7dUMPs-31">
          <mxGeometry y="502" width="363" height="26" as="geometry" />
        </mxCell>
        <mxCell id="7yRF4xjfkNmWZK7dUMPs-97" style="edgeStyle=orthogonalEdgeStyle;rounded=0;orthogonalLoop=1;jettySize=auto;html=1;entryX=1;entryY=0.5;entryDx=0;entryDy=0;strokeWidth=2;endArrow=open;endFill=0;endSize=15;" edge="1" parent="1" source="7yRF4xjfkNmWZK7dUMPs-64" target="7yRF4xjfkNmWZK7dUMPs-43">
          <mxGeometry relative="1" as="geometry">
            <Array as="points">
              <mxPoint x="2158" y="-1883" />
              <mxPoint x="2158" y="-1883" />
            </Array>
          </mxGeometry>
        </mxCell>
        <mxCell id="7yRF4xjfkNmWZK7dUMPs-98" style="edgeStyle=orthogonalEdgeStyle;rounded=0;orthogonalLoop=1;jettySize=auto;html=1;entryX=0;entryY=0.5;entryDx=0;entryDy=0;strokeWidth=2;dashed=1;endArrow=block;endFill=0;endSize=15;" edge="1" parent="1" source="7yRF4xjfkNmWZK7dUMPs-64" target="7yRF4xjfkNmWZK7dUMPs-91">
          <mxGeometry relative="1" as="geometry">
            <Array as="points">
              <mxPoint x="2617" y="-1909" />
              <mxPoint x="2617" y="-1909" />
            </Array>
          </mxGeometry>
        </mxCell>
        <mxCell id="7yRF4xjfkNmWZK7dUMPs-203" style="edgeStyle=orthogonalEdgeStyle;rounded=0;orthogonalLoop=1;jettySize=auto;html=1;entryX=0.5;entryY=0;entryDx=0;entryDy=0;strokeWidth=2;endArrow=diamondThin;endFill=0;endSize=15;" edge="1" parent="1" source="7yRF4xjfkNmWZK7dUMPs-64" target="ckGaQ8mt0c1OZZj6wi1W-40">
          <mxGeometry relative="1" as="geometry" />
        </mxCell>
        <mxCell id="7yRF4xjfkNmWZK7dUMPs-64" value="StudentsListFileAdapter" style="swimlane;fontStyle=1;align=center;verticalAlign=top;childLayout=stackLayout;horizontal=1;startSize=26;horizontalStack=0;resizeParent=1;resizeParentMax=0;resizeLast=0;collapsible=1;marginBottom=0;whiteSpace=wrap;html=1;fontSize=16;" vertex="1" parent="1">
          <mxGeometry x="2222" y="-2034" width="363" height="268" as="geometry" />
        </mxCell>
        <mxCell id="7yRF4xjfkNmWZK7dUMPs-65" value="- adaptee" style="text;strokeColor=none;fillColor=none;align=left;verticalAlign=top;spacingLeft=4;spacingRight=4;overflow=hidden;rotatable=0;points=[[0,0.5],[1,0.5]];portConstraint=eastwest;whiteSpace=wrap;html=1;fontSize=16;" vertex="1" parent="7yRF4xjfkNmWZK7dUMPs-64">
          <mxGeometry y="26" width="363" height="26" as="geometry" />
        </mxCell>
        <mxCell id="7yRF4xjfkNmWZK7dUMPs-68" value="" style="line;strokeWidth=1;fillColor=none;align=left;verticalAlign=middle;spacingTop=-1;spacingLeft=3;spacingRight=3;rotatable=0;labelPosition=right;points=[];portConstraint=eastwest;strokeColor=inherit;" vertex="1" parent="7yRF4xjfkNmWZK7dUMPs-64">
          <mxGeometry y="52" width="363" height="8" as="geometry" />
        </mxCell>
        <mxCell id="7yRF4xjfkNmWZK7dUMPs-69" value="+ initialize(StudentsListFile)" style="text;strokeColor=none;fillColor=none;align=left;verticalAlign=top;spacingLeft=4;spacingRight=4;overflow=hidden;rotatable=0;points=[[0,0.5],[1,0.5]];portConstraint=eastwest;whiteSpace=wrap;html=1;fontSize=16;" vertex="1" parent="7yRF4xjfkNmWZK7dUMPs-64">
          <mxGeometry y="60" width="363" height="26" as="geometry" />
        </mxCell>
        <mxCell id="7yRF4xjfkNmWZK7dUMPs-72" value="+ get_student_by_id(id)" style="text;strokeColor=none;fillColor=none;align=left;verticalAlign=top;spacingLeft=4;spacingRight=4;overflow=hidden;rotatable=0;points=[[0,0.5],[1,0.5]];portConstraint=eastwest;whiteSpace=wrap;html=1;fontSize=16;" vertex="1" parent="7yRF4xjfkNmWZK7dUMPs-64">
          <mxGeometry y="86" width="363" height="26" as="geometry" />
        </mxCell>
        <mxCell id="7yRF4xjfkNmWZK7dUMPs-73" value="+ get_k_n_student_short_list(k, n, data_list = nil)" style="text;strokeColor=none;fillColor=none;align=left;verticalAlign=top;spacingLeft=4;spacingRight=4;overflow=hidden;rotatable=0;points=[[0,0.5],[1,0.5]];portConstraint=eastwest;whiteSpace=wrap;html=1;fontSize=16;" vertex="1" parent="7yRF4xjfkNmWZK7dUMPs-64">
          <mxGeometry y="112" width="363" height="26" as="geometry" />
        </mxCell>
        <mxCell id="7yRF4xjfkNmWZK7dUMPs-75" value="+ add_student(student)" style="text;strokeColor=none;fillColor=none;align=left;verticalAlign=top;spacingLeft=4;spacingRight=4;overflow=hidden;rotatable=0;points=[[0,0.5],[1,0.5]];portConstraint=eastwest;whiteSpace=wrap;html=1;fontSize=16;" vertex="1" parent="7yRF4xjfkNmWZK7dUMPs-64">
          <mxGeometry y="138" width="363" height="26" as="geometry" />
        </mxCell>
        <mxCell id="7yRF4xjfkNmWZK7dUMPs-77" value="+ replace_student_by_id(id, new_student)" style="text;strokeColor=none;fillColor=none;align=left;verticalAlign=top;spacingLeft=4;spacingRight=4;overflow=hidden;rotatable=0;points=[[0,0.5],[1,0.5]];portConstraint=eastwest;whiteSpace=wrap;html=1;fontSize=16;" vertex="1" parent="7yRF4xjfkNmWZK7dUMPs-64">
          <mxGeometry y="164" width="363" height="26" as="geometry" />
        </mxCell>
        <mxCell id="7yRF4xjfkNmWZK7dUMPs-78" value="+ delete_student_by_id(id)" style="text;strokeColor=none;fillColor=none;align=left;verticalAlign=top;spacingLeft=4;spacingRight=4;overflow=hidden;rotatable=0;points=[[0,0.5],[1,0.5]];portConstraint=eastwest;whiteSpace=wrap;html=1;fontSize=16;" vertex="1" parent="7yRF4xjfkNmWZK7dUMPs-64">
          <mxGeometry y="190" width="363" height="26" as="geometry" />
        </mxCell>
        <mxCell id="7yRF4xjfkNmWZK7dUMPs-79" value="+ get_student_short_count" style="text;strokeColor=none;fillColor=none;align=left;verticalAlign=top;spacingLeft=4;spacingRight=4;overflow=hidden;rotatable=0;points=[[0,0.5],[1,0.5]];portConstraint=eastwest;whiteSpace=wrap;html=1;fontSize=16;" vertex="1" parent="7yRF4xjfkNmWZK7dUMPs-64">
          <mxGeometry y="216" width="363" height="26" as="geometry" />
        </mxCell>
        <mxCell id="7yRF4xjfkNmWZK7dUMPs-80" value="- adaptee: attr_accessor" style="text;strokeColor=none;fillColor=none;align=left;verticalAlign=top;spacingLeft=4;spacingRight=4;overflow=hidden;rotatable=0;points=[[0,0.5],[1,0.5]];portConstraint=eastwest;whiteSpace=wrap;html=1;fontSize=16;" vertex="1" parent="7yRF4xjfkNmWZK7dUMPs-64">
          <mxGeometry y="242" width="363" height="26" as="geometry" />
        </mxCell>
        <mxCell id="7yRF4xjfkNmWZK7dUMPs-99" style="edgeStyle=orthogonalEdgeStyle;rounded=0;orthogonalLoop=1;jettySize=auto;html=1;dashed=1;strokeWidth=2;endArrow=none;endFill=0;endSize=15;startArrow=block;startFill=0;startSize=15;" edge="1" parent="1" source="7yRF4xjfkNmWZK7dUMPs-85">
          <mxGeometry relative="1" as="geometry">
            <mxPoint x="1680" y="-3169" as="targetPoint" />
            <Array as="points">
              <mxPoint x="2970" y="-3263" />
              <mxPoint x="1680" y="-3263" />
              <mxPoint x="1680" y="-3169" />
            </Array>
          </mxGeometry>
        </mxCell>
        <mxCell id="7yRF4xjfkNmWZK7dUMPs-85" value="StudentsListInterface" style="swimlane;fontStyle=1;align=center;verticalAlign=top;childLayout=stackLayout;horizontal=1;startSize=26;horizontalStack=0;resizeParent=1;resizeParentMax=0;resizeLast=0;collapsible=1;marginBottom=0;whiteSpace=wrap;html=1;fontSize=16;" vertex="1" parent="1">
          <mxGeometry x="2713" y="-2034" width="363" height="216" as="geometry" />
        </mxCell>
        <mxCell id="7yRF4xjfkNmWZK7dUMPs-87" value="" style="line;strokeWidth=1;fillColor=none;align=left;verticalAlign=middle;spacingTop=-1;spacingLeft=3;spacingRight=3;rotatable=0;labelPosition=right;points=[];portConstraint=eastwest;strokeColor=inherit;" vertex="1" parent="7yRF4xjfkNmWZK7dUMPs-85">
          <mxGeometry y="26" width="363" height="8" as="geometry" />
        </mxCell>
        <mxCell id="7yRF4xjfkNmWZK7dUMPs-88" value="+ initialize(StudentsListFile)" style="text;strokeColor=none;fillColor=none;align=left;verticalAlign=top;spacingLeft=4;spacingRight=4;overflow=hidden;rotatable=0;points=[[0,0.5],[1,0.5]];portConstraint=eastwest;whiteSpace=wrap;html=1;fontSize=16;fontStyle=2" vertex="1" parent="7yRF4xjfkNmWZK7dUMPs-85">
          <mxGeometry y="34" width="363" height="26" as="geometry" />
        </mxCell>
        <mxCell id="7yRF4xjfkNmWZK7dUMPs-89" value="+ get_student_by_id(id)" style="text;strokeColor=none;fillColor=none;align=left;verticalAlign=top;spacingLeft=4;spacingRight=4;overflow=hidden;rotatable=0;points=[[0,0.5],[1,0.5]];portConstraint=eastwest;whiteSpace=wrap;html=1;fontSize=16;fontStyle=2" vertex="1" parent="7yRF4xjfkNmWZK7dUMPs-85">
          <mxGeometry y="60" width="363" height="26" as="geometry" />
        </mxCell>
        <mxCell id="7yRF4xjfkNmWZK7dUMPs-90" value="+ get_k_n_student_short_list(k, n, data_list = nil)" style="text;strokeColor=none;fillColor=none;align=left;verticalAlign=top;spacingLeft=4;spacingRight=4;overflow=hidden;rotatable=0;points=[[0,0.5],[1,0.5]];portConstraint=eastwest;whiteSpace=wrap;html=1;fontSize=16;fontStyle=2" vertex="1" parent="7yRF4xjfkNmWZK7dUMPs-85">
          <mxGeometry y="86" width="363" height="26" as="geometry" />
        </mxCell>
        <mxCell id="7yRF4xjfkNmWZK7dUMPs-91" value="+ add_student(student)" style="text;strokeColor=none;fillColor=none;align=left;verticalAlign=top;spacingLeft=4;spacingRight=4;overflow=hidden;rotatable=0;points=[[0,0.5],[1,0.5]];portConstraint=eastwest;whiteSpace=wrap;html=1;fontSize=16;fontStyle=2" vertex="1" parent="7yRF4xjfkNmWZK7dUMPs-85">
          <mxGeometry y="112" width="363" height="26" as="geometry" />
        </mxCell>
        <mxCell id="7yRF4xjfkNmWZK7dUMPs-92" value="+ replace_student_by_id(id, new_student)" style="text;strokeColor=none;fillColor=none;align=left;verticalAlign=top;spacingLeft=4;spacingRight=4;overflow=hidden;rotatable=0;points=[[0,0.5],[1,0.5]];portConstraint=eastwest;whiteSpace=wrap;html=1;fontSize=16;fontStyle=2" vertex="1" parent="7yRF4xjfkNmWZK7dUMPs-85">
          <mxGeometry y="138" width="363" height="26" as="geometry" />
        </mxCell>
        <mxCell id="7yRF4xjfkNmWZK7dUMPs-93" value="+ delete_student_by_id(id)" style="text;strokeColor=none;fillColor=none;align=left;verticalAlign=top;spacingLeft=4;spacingRight=4;overflow=hidden;rotatable=0;points=[[0,0.5],[1,0.5]];portConstraint=eastwest;whiteSpace=wrap;html=1;fontSize=16;fontStyle=2" vertex="1" parent="7yRF4xjfkNmWZK7dUMPs-85">
          <mxGeometry y="164" width="363" height="26" as="geometry" />
        </mxCell>
        <mxCell id="7yRF4xjfkNmWZK7dUMPs-94" value="+ get_student_short_count" style="text;strokeColor=none;fillColor=none;align=left;verticalAlign=top;spacingLeft=4;spacingRight=4;overflow=hidden;rotatable=0;points=[[0,0.5],[1,0.5]];portConstraint=eastwest;whiteSpace=wrap;html=1;fontSize=16;fontStyle=2" vertex="1" parent="7yRF4xjfkNmWZK7dUMPs-85">
          <mxGeometry y="190" width="363" height="26" as="geometry" />
        </mxCell>
        <mxCell id="7yRF4xjfkNmWZK7dUMPs-132" value="StudentsListController" style="swimlane;fontStyle=1;align=center;verticalAlign=top;childLayout=stackLayout;horizontal=1;startSize=26;horizontalStack=0;resizeParent=1;resizeParentMax=0;resizeLast=0;collapsible=1;marginBottom=0;whiteSpace=wrap;html=1;fontSize=16;" vertex="1" parent="1">
          <mxGeometry x="527" y="-2981" width="363" height="216" as="geometry" />
        </mxCell>
        <mxCell id="7yRF4xjfkNmWZK7dUMPs-133" value="- view: StudentsListView" style="text;strokeColor=none;fillColor=none;align=left;verticalAlign=top;spacingLeft=4;spacingRight=4;overflow=hidden;rotatable=0;points=[[0,0.5],[1,0.5]];portConstraint=eastwest;whiteSpace=wrap;html=1;fontSize=16;" vertex="1" parent="7yRF4xjfkNmWZK7dUMPs-132">
          <mxGeometry y="26" width="363" height="26" as="geometry" />
        </mxCell>
        <mxCell id="7yRF4xjfkNmWZK7dUMPs-143" value="- students_list: StudentsList" style="text;strokeColor=none;fillColor=none;align=left;verticalAlign=top;spacingLeft=4;spacingRight=4;overflow=hidden;rotatable=0;points=[[0,0.5],[1,0.5]];portConstraint=eastwest;whiteSpace=wrap;html=1;fontSize=16;" vertex="1" parent="7yRF4xjfkNmWZK7dUMPs-132">
          <mxGeometry y="52" width="363" height="26" as="geometry" />
        </mxCell>
        <mxCell id="7yRF4xjfkNmWZK7dUMPs-144" value="- data_list: DataList" style="text;strokeColor=none;fillColor=none;align=left;verticalAlign=top;spacingLeft=4;spacingRight=4;overflow=hidden;rotatable=0;points=[[0,0.5],[1,0.5]];portConstraint=eastwest;whiteSpace=wrap;html=1;fontSize=16;" vertex="1" parent="7yRF4xjfkNmWZK7dUMPs-132">
          <mxGeometry y="78" width="363" height="26" as="geometry" />
        </mxCell>
        <mxCell id="7yRF4xjfkNmWZK7dUMPs-134" value="" style="line;strokeWidth=1;fillColor=none;align=left;verticalAlign=middle;spacingTop=-1;spacingLeft=3;spacingRight=3;rotatable=0;labelPosition=right;points=[];portConstraint=eastwest;strokeColor=inherit;" vertex="1" parent="7yRF4xjfkNmWZK7dUMPs-132">
          <mxGeometry y="104" width="363" height="8" as="geometry" />
        </mxCell>
        <mxCell id="7yRF4xjfkNmWZK7dUMPs-135" value="+ refresh_data" style="text;strokeColor=none;fillColor=none;align=left;verticalAlign=top;spacingLeft=4;spacingRight=4;overflow=hidden;rotatable=0;points=[[0,0.5],[1,0.5]];portConstraint=eastwest;whiteSpace=wrap;html=1;fontSize=16;" vertex="1" parent="7yRF4xjfkNmWZK7dUMPs-132">
          <mxGeometry y="112" width="363" height="26" as="geometry" />
        </mxCell>
        <mxCell id="7yRF4xjfkNmWZK7dUMPs-142" value="- view: attr_accessor" style="text;strokeColor=none;fillColor=none;align=left;verticalAlign=top;spacingLeft=4;spacingRight=4;overflow=hidden;rotatable=0;points=[[0,0.5],[1,0.5]];portConstraint=eastwest;whiteSpace=wrap;html=1;fontSize=16;" vertex="1" parent="7yRF4xjfkNmWZK7dUMPs-132">
          <mxGeometry y="138" width="363" height="26" as="geometry" />
        </mxCell>
        <mxCell id="7yRF4xjfkNmWZK7dUMPs-158" value="- students_list: attr_accessor" style="text;strokeColor=none;fillColor=none;align=left;verticalAlign=top;spacingLeft=4;spacingRight=4;overflow=hidden;rotatable=0;points=[[0,0.5],[1,0.5]];portConstraint=eastwest;whiteSpace=wrap;html=1;fontSize=16;" vertex="1" parent="7yRF4xjfkNmWZK7dUMPs-132">
          <mxGeometry y="164" width="363" height="26" as="geometry" />
        </mxCell>
        <mxCell id="7yRF4xjfkNmWZK7dUMPs-159" value="- data_list: attr_accessor" style="text;strokeColor=none;fillColor=none;align=left;verticalAlign=top;spacingLeft=4;spacingRight=4;overflow=hidden;rotatable=0;points=[[0,0.5],[1,0.5]];portConstraint=eastwest;whiteSpace=wrap;html=1;fontSize=16;" vertex="1" parent="7yRF4xjfkNmWZK7dUMPs-132">
          <mxGeometry y="190" width="363" height="26" as="geometry" />
        </mxCell>
        <mxCell id="7yRF4xjfkNmWZK7dUMPs-169" value="StudentsListView" style="swimlane;fontStyle=1;align=center;verticalAlign=top;childLayout=stackLayout;horizontal=1;startSize=26;horizontalStack=0;resizeParent=1;resizeParentMax=0;resizeLast=0;collapsible=1;marginBottom=0;whiteSpace=wrap;html=1;fontSize=16;" vertex="1" parent="1">
          <mxGeometry x="527" y="-2699" width="363" height="602" as="geometry" />
        </mxCell>
        <mxCell id="7yRF4xjfkNmWZK7dUMPs-197" value="- app" style="text;strokeColor=none;fillColor=none;align=left;verticalAlign=top;spacingLeft=4;spacingRight=4;overflow=hidden;rotatable=0;points=[[0,0.5],[1,0.5]];portConstraint=eastwest;whiteSpace=wrap;html=1;fontSize=16;" vertex="1" parent="7yRF4xjfkNmWZK7dUMPs-169">
          <mxGeometry y="26" width="363" height="26" as="geometry" />
        </mxCell>
        <mxCell id="7yRF4xjfkNmWZK7dUMPs-170" value="- controller: StudentsListController" style="text;strokeColor=none;fillColor=none;align=left;verticalAlign=top;spacingLeft=4;spacingRight=4;overflow=hidden;rotatable=0;points=[[0,0.5],[1,0.5]];portConstraint=eastwest;whiteSpace=wrap;html=1;fontSize=16;" vertex="1" parent="7yRF4xjfkNmWZK7dUMPs-169">
          <mxGeometry y="52" width="363" height="26" as="geometry" />
        </mxCell>
        <mxCell id="7yRF4xjfkNmWZK7dUMPs-171" value="- filters: Hash" style="text;strokeColor=none;fillColor=none;align=left;verticalAlign=top;spacingLeft=4;spacingRight=4;overflow=hidden;rotatable=0;points=[[0,0.5],[1,0.5]];portConstraint=eastwest;whiteSpace=wrap;html=1;fontSize=16;" vertex="1" parent="7yRF4xjfkNmWZK7dUMPs-169">
          <mxGeometry y="78" width="363" height="26" as="geometry" />
        </mxCell>
        <mxCell id="7yRF4xjfkNmWZK7dUMPs-172" value="- current_page: Integer" style="text;strokeColor=none;fillColor=none;align=left;verticalAlign=top;spacingLeft=4;spacingRight=4;overflow=hidden;rotatable=0;points=[[0,0.5],[1,0.5]];portConstraint=eastwest;whiteSpace=wrap;html=1;fontSize=16;" vertex="1" parent="7yRF4xjfkNmWZK7dUMPs-169">
          <mxGeometry y="104" width="363" height="26" as="geometry" />
        </mxCell>
        <mxCell id="7yRF4xjfkNmWZK7dUMPs-190" value="- items_per_page: Integer" style="text;strokeColor=none;fillColor=none;align=left;verticalAlign=top;spacingLeft=4;spacingRight=4;overflow=hidden;rotatable=0;points=[[0,0.5],[1,0.5]];portConstraint=eastwest;whiteSpace=wrap;html=1;fontSize=16;" vertex="1" parent="7yRF4xjfkNmWZK7dUMPs-169">
          <mxGeometry y="130" width="363" height="26" as="geometry" />
        </mxCell>
        <mxCell id="7yRF4xjfkNmWZK7dUMPs-191" value="- total_pages: Integer" style="text;strokeColor=none;fillColor=none;align=left;verticalAlign=top;spacingLeft=4;spacingRight=4;overflow=hidden;rotatable=0;points=[[0,0.5],[1,0.5]];portConstraint=eastwest;whiteSpace=wrap;html=1;fontSize=16;" vertex="1" parent="7yRF4xjfkNmWZK7dUMPs-169">
          <mxGeometry y="156" width="363" height="26" as="geometry" />
        </mxCell>
        <mxCell id="7yRF4xjfkNmWZK7dUMPs-192" value="- table: FXTable" style="text;strokeColor=none;fillColor=none;align=left;verticalAlign=top;spacingLeft=4;spacingRight=4;overflow=hidden;rotatable=0;points=[[0,0.5],[1,0.5]];portConstraint=eastwest;whiteSpace=wrap;html=1;fontSize=16;" vertex="1" parent="7yRF4xjfkNmWZK7dUMPs-169">
          <mxGeometry y="182" width="363" height="26" as="geometry" />
        </mxCell>
        <mxCell id="7yRF4xjfkNmWZK7dUMPs-193" value="- prev_button: FXButton" style="text;strokeColor=none;fillColor=none;align=left;verticalAlign=top;spacingLeft=4;spacingRight=4;overflow=hidden;rotatable=0;points=[[0,0.5],[1,0.5]];portConstraint=eastwest;whiteSpace=wrap;html=1;fontSize=16;" vertex="1" parent="7yRF4xjfkNmWZK7dUMPs-169">
          <mxGeometry y="208" width="363" height="26" as="geometry" />
        </mxCell>
        <mxCell id="7yRF4xjfkNmWZK7dUMPs-194" value="- next_button: FXButton" style="text;strokeColor=none;fillColor=none;align=left;verticalAlign=top;spacingLeft=4;spacingRight=4;overflow=hidden;rotatable=0;points=[[0,0.5],[1,0.5]];portConstraint=eastwest;whiteSpace=wrap;html=1;fontSize=16;" vertex="1" parent="7yRF4xjfkNmWZK7dUMPs-169">
          <mxGeometry y="234" width="363" height="26" as="geometry" />
        </mxCell>
        <mxCell id="7yRF4xjfkNmWZK7dUMPs-196" value="- edit_button: FXButton" style="text;strokeColor=none;fillColor=none;align=left;verticalAlign=top;spacingLeft=4;spacingRight=4;overflow=hidden;rotatable=0;points=[[0,0.5],[1,0.5]];portConstraint=eastwest;whiteSpace=wrap;html=1;fontSize=16;" vertex="1" parent="7yRF4xjfkNmWZK7dUMPs-169">
          <mxGeometry y="260" width="363" height="26" as="geometry" />
        </mxCell>
        <mxCell id="7yRF4xjfkNmWZK7dUMPs-195" value="- page_label: FXLabel" style="text;strokeColor=none;fillColor=none;align=left;verticalAlign=top;spacingLeft=4;spacingRight=4;overflow=hidden;rotatable=0;points=[[0,0.5],[1,0.5]];portConstraint=eastwest;whiteSpace=wrap;html=1;fontSize=16;" vertex="1" parent="7yRF4xjfkNmWZK7dUMPs-169">
          <mxGeometry y="286" width="363" height="26" as="geometry" />
        </mxCell>
        <mxCell id="7yRF4xjfkNmWZK7dUMPs-173" value="" style="line;strokeWidth=1;fillColor=none;align=left;verticalAlign=middle;spacingTop=-1;spacingLeft=3;spacingRight=3;rotatable=0;labelPosition=right;points=[];portConstraint=eastwest;strokeColor=inherit;" vertex="1" parent="7yRF4xjfkNmWZK7dUMPs-169">
          <mxGeometry y="312" width="363" height="8" as="geometry" />
        </mxCell>
        <mxCell id="7yRF4xjfkNmWZK7dUMPs-202" value="&lt;font style=&quot;font-size: 16px;&quot;&gt;&lt;span style=&quot;color: rgb(0, 0, 0); font-family: Helvetica; font-style: normal; font-variant-ligatures: normal; font-variant-caps: normal; font-weight: 400; letter-spacing: normal; orphans: 2; text-align: left; text-indent: 0px; text-transform: none; widows: 2; word-spacing: 0px; -webkit-text-stroke-width: 0px; white-space: nowrap; background-color: rgb(251, 251, 251); text-decoration-thickness: initial; text-decoration-style: initial; text-decoration-color: initial; float: none; display: inline !important;&quot;&gt;+ setup_filter_area(FXFrame)&lt;/span&gt;&lt;br style=&quot;forced-color-adjust: none; padding: 0px; margin: 0px; color: rgb(0, 0, 0); font-family: Helvetica; font-style: normal; font-variant-ligatures: normal; font-variant-caps: normal; font-weight: 400; letter-spacing: normal; orphans: 2; text-align: left; text-indent: 0px; text-transform: none; widows: 2; word-spacing: 0px; -webkit-text-stroke-width: 0px; white-space: nowrap; background-color: rgb(251, 251, 251); text-decoration-thickness: initial; text-decoration-style: initial; text-decoration-color: initial;&quot;&gt;&lt;span style=&quot;color: rgb(0, 0, 0); font-family: Helvetica; font-style: normal; font-variant-ligatures: normal; font-variant-caps: normal; font-weight: 400; letter-spacing: normal; orphans: 2; text-align: left; text-indent: 0px; text-transform: none; widows: 2; word-spacing: 0px; -webkit-text-stroke-width: 0px; white-space: nowrap; background-color: rgb(251, 251, 251); text-decoration-thickness: initial; text-decoration-style: initial; text-decoration-color: initial; float: none; display: inline !important;&quot;&gt;+ setup_table_area (FXFrame)&lt;/span&gt;&lt;br style=&quot;forced-color-adjust: none; padding: 0px; margin: 0px; color: rgb(0, 0, 0); font-family: Helvetica; font-style: normal; font-variant-ligatures: normal; font-variant-caps: normal; font-weight: 400; letter-spacing: normal; orphans: 2; text-align: left; text-indent: 0px; text-transform: none; widows: 2; word-spacing: 0px; -webkit-text-stroke-width: 0px; white-space: nowrap; background-color: rgb(251, 251, 251); text-decoration-thickness: initial; text-decoration-style: initial; text-decoration-color: initial;&quot;&gt;&lt;span style=&quot;color: rgb(0, 0, 0); font-family: Helvetica; font-style: normal; font-variant-ligatures: normal; font-variant-caps: normal; font-weight: 400; letter-spacing: normal; orphans: 2; text-align: left; text-indent: 0px; text-transform: none; widows: 2; word-spacing: 0px; -webkit-text-stroke-width: 0px; white-space: nowrap; background-color: rgb(251, 251, 251); text-decoration-thickness: initial; text-decoration-style: initial; text-decoration-color: initial; float: none; display: inline !important;&quot;&gt;+ setup_control_area (FXFrame)&lt;/span&gt;&lt;br style=&quot;forced-color-adjust: none; padding: 0px; margin: 0px; color: rgb(0, 0, 0); font-family: Helvetica; font-style: normal; font-variant-ligatures: normal; font-variant-caps: normal; font-weight: 400; letter-spacing: normal; orphans: 2; text-align: left; text-indent: 0px; text-transform: none; widows: 2; word-spacing: 0px; -webkit-text-stroke-width: 0px; white-space: nowrap; background-color: rgb(251, 251, 251); text-decoration-thickness: initial; text-decoration-style: initial; text-decoration-color: initial;&quot;&gt;&lt;span style=&quot;color: rgb(0, 0, 0); font-family: Helvetica; font-style: normal; font-variant-ligatures: normal; font-variant-caps: normal; font-weight: 400; letter-spacing: normal; orphans: 2; text-align: left; text-indent: 0px; text-transform: none; widows: 2; word-spacing: 0px; -webkit-text-stroke-width: 0px; white-space: nowrap; background-color: rgb(251, 251, 251); text-decoration-thickness: initial; text-decoration-style: initial; text-decoration-color: initial; float: none; display: inline !important;&quot;&gt;+ update_buttons_state&lt;/span&gt;&lt;br style=&quot;forced-color-adjust: none; padding: 0px; margin: 0px; color: rgb(0, 0, 0); font-family: Helvetica; font-style: normal; font-variant-ligatures: normal; font-variant-caps: normal; font-weight: 400; letter-spacing: normal; orphans: 2; text-align: left; text-indent: 0px; text-transform: none; widows: 2; word-spacing: 0px; -webkit-text-stroke-width: 0px; white-space: nowrap; background-color: rgb(251, 251, 251); text-decoration-thickness: initial; text-decoration-style: initial; text-decoration-color: initial;&quot;&gt;&lt;span style=&quot;color: rgb(0, 0, 0); font-family: Helvetica; font-style: normal; font-variant-ligatures: normal; font-variant-caps: normal; font-weight: 400; letter-spacing: normal; orphans: 2; text-align: left; text-indent: 0px; text-transform: none; widows: 2; word-spacing: 0px; -webkit-text-stroke-width: 0px; white-space: nowrap; background-color: rgb(251, 251, 251); text-decoration-thickness: initial; text-decoration-style: initial; text-decoration-color: initial; float: none; display: inline !important;&quot;&gt;+ change_page(Integer)&lt;/span&gt;&lt;br style=&quot;forced-color-adjust: none; padding: 0px; margin: 0px; color: rgb(0, 0, 0); font-family: Helvetica; font-style: normal; font-variant-ligatures: normal; font-variant-caps: normal; font-weight: 400; letter-spacing: normal; orphans: 2; text-align: left; text-indent: 0px; text-transform: none; widows: 2; word-spacing: 0px; -webkit-text-stroke-width: 0px; white-space: nowrap; background-color: rgb(251, 251, 251); text-decoration-thickness: initial; text-decoration-style: initial; text-decoration-color: initial;&quot;&gt;&lt;span style=&quot;color: rgb(0, 0, 0); font-family: Helvetica; font-style: normal; font-variant-ligatures: normal; font-variant-caps: normal; font-weight: 400; letter-spacing: normal; orphans: 2; text-align: left; text-indent: 0px; text-transform: none; widows: 2; word-spacing: 0px; -webkit-text-stroke-width: 0px; white-space: nowrap; background-color: rgb(251, 251, 251); text-decoration-thickness: initial; text-decoration-style: initial; text-decoration-color: initial; float: none; display: inline !important;&quot;&gt;+ refresh_data()&lt;/span&gt;&lt;br style=&quot;forced-color-adjust: none; padding: 0px; margin: 0px; color: rgb(0, 0, 0); font-family: Helvetica; font-style: normal; font-variant-ligatures: normal; font-variant-caps: normal; font-weight: 400; letter-spacing: normal; orphans: 2; text-align: left; text-indent: 0px; text-transform: none; widows: 2; word-spacing: 0px; -webkit-text-stroke-width: 0px; white-space: nowrap; background-color: rgb(251, 251, 251); text-decoration-thickness: initial; text-decoration-style: initial; text-decoration-color: initial;&quot;&gt;&lt;span style=&quot;color: rgb(0, 0, 0); font-family: Helvetica; font-style: normal; font-variant-ligatures: normal; font-variant-caps: normal; font-weight: 400; letter-spacing: normal; orphans: 2; text-align: left; text-indent: 0px; text-transform: none; widows: 2; word-spacing: 0px; -webkit-text-stroke-width: 0px; white-space: nowrap; background-color: rgb(251, 251, 251); text-decoration-thickness: initial; text-decoration-style: initial; text-decoration-color: initial; float: none; display: inline !important;&quot;&gt;+ set_table_params(String[], Integer)&lt;/span&gt;&lt;br style=&quot;forced-color-adjust: none; padding: 0px; margin: 0px; color: rgb(0, 0, 0); font-family: Helvetica; font-style: normal; font-variant-ligatures: normal; font-variant-caps: normal; font-weight: 400; letter-spacing: normal; orphans: 2; text-align: left; text-indent: 0px; text-transform: none; widows: 2; word-spacing: 0px; -webkit-text-stroke-width: 0px; white-space: nowrap; background-color: rgb(251, 251, 251); text-decoration-thickness: initial; text-decoration-style: initial; text-decoration-color: initial;&quot;&gt;&lt;span style=&quot;color: rgb(0, 0, 0); font-family: Helvetica; font-style: normal; font-variant-ligatures: normal; font-variant-caps: normal; font-weight: 400; letter-spacing: normal; orphans: 2; text-align: left; text-indent: 0px; text-transform: none; widows: 2; word-spacing: 0px; -webkit-text-stroke-width: 0px; white-space: nowrap; background-color: rgb(251, 251, 251); text-decoration-thickness: initial; text-decoration-style: initial; text-decoration-color: initial; float: none; display: inline !important;&quot;&gt;+ set_table_data(Data_table)&lt;/span&gt;&lt;br style=&quot;forced-color-adjust: none; padding: 0px; margin: 0px; color: rgb(0, 0, 0); font-family: Helvetica; font-style: normal; font-variant-ligatures: normal; font-variant-caps: normal; font-weight: 400; letter-spacing: normal; orphans: 2; text-align: left; text-indent: 0px; text-transform: none; widows: 2; word-spacing: 0px; -webkit-text-stroke-width: 0px; white-space: nowrap; background-color: rgb(251, 251, 251); text-decoration-thickness: initial; text-decoration-style: initial; text-decoration-color: initial;&quot;&gt;&lt;span style=&quot;color: rgb(0, 0, 0); font-family: Helvetica; font-style: normal; font-variant-ligatures: normal; font-variant-caps: normal; font-weight: 400; letter-spacing: normal; orphans: 2; text-align: left; text-indent: 0px; text-transform: none; widows: 2; word-spacing: 0px; -webkit-text-stroke-width: 0px; white-space: nowrap; background-color: rgb(251, 251, 251); text-decoration-thickness: initial; text-decoration-style: initial; text-decoration-color: initial; float: none; display: inline !important;&quot;&gt;+ show_error_message(String)&lt;/span&gt;&lt;br style=&quot;forced-color-adjust: none; padding: 0px; margin: 0px; color: rgb(0, 0, 0); font-family: Helvetica; font-style: normal; font-variant-ligatures: normal; font-variant-caps: normal; font-weight: 400; letter-spacing: normal; orphans: 2; text-align: left; text-indent: 0px; text-transform: none; widows: 2; word-spacing: 0px; -webkit-text-stroke-width: 0px; white-space: nowrap; background-color: rgb(251, 251, 251); text-decoration-thickness: initial; text-decoration-style: initial; text-decoration-color: initial;&quot;&gt;&lt;span style=&quot;color: rgb(0, 0, 0); font-family: Helvetica; font-style: normal; font-variant-ligatures: normal; font-variant-caps: normal; font-weight: 400; letter-spacing: normal; orphans: 2; text-align: left; text-indent: 0px; text-transform: none; widows: 2; word-spacing: 0px; -webkit-text-stroke-width: 0px; white-space: nowrap; background-color: rgb(251, 251, 251); text-decoration-thickness: initial; text-decoration-style: initial; text-decoration-color: initial; float: none; display: inline !important;&quot;&gt;- clear_table()&lt;/span&gt;&lt;br style=&quot;forced-color-adjust: none; padding: 0px; margin: 0px; color: rgb(0, 0, 0); font-family: Helvetica; font-style: normal; font-variant-ligatures: normal; font-variant-caps: normal; font-weight: 400; letter-spacing: normal; orphans: 2; text-align: left; text-indent: 0px; text-transform: none; widows: 2; word-spacing: 0px; -webkit-text-stroke-width: 0px; white-space: nowrap; background-color: rgb(251, 251, 251); text-decoration-thickness: initial; text-decoration-style: initial; text-decoration-color: initial;&quot;&gt;&lt;span style=&quot;color: rgb(0, 0, 0); font-family: Helvetica; font-style: normal; font-variant-ligatures: normal; font-variant-caps: normal; font-weight: 400; letter-spacing: normal; orphans: 2; text-align: left; text-indent: 0px; text-transform: none; widows: 2; word-spacing: 0px; -webkit-text-stroke-width: 0px; white-space: nowrap; background-color: rgb(251, 251, 251); text-decoration-thickness: initial; text-decoration-style: initial; text-decoration-color: initial; float: none; display: inline !important;&quot;&gt;- reset_filters()&lt;/span&gt;&lt;/font&gt;&lt;div&gt;&lt;font style=&quot;font-size: 16px;&quot;&gt;&lt;span style=&quot;color: rgb(0, 0, 0); font-family: Helvetica; font-style: normal; font-variant-ligatures: normal; font-variant-caps: normal; font-weight: 400; letter-spacing: normal; orphans: 2; text-align: left; text-indent: 0px; text-transform: none; widows: 2; word-spacing: 0px; -webkit-text-stroke-width: 0px; white-space: nowrap; background-color: rgb(251, 251, 251); text-decoration-thickness: initial; text-decoration-style: initial; text-decoration-color: initial; float: none; display: inline !important;&quot;&gt;- create_entry()&lt;/span&gt;&lt;/font&gt;&lt;/div&gt;&lt;div&gt;&lt;font style=&quot;font-size: 16px;&quot;&gt;&lt;span style=&quot;color: rgb(0, 0, 0); font-family: Helvetica; font-style: normal; font-variant-ligatures: normal; font-variant-caps: normal; font-weight: 400; letter-spacing: normal; orphans: 2; text-align: left; text-indent: 0px; text-transform: none; widows: 2; word-spacing: 0px; -webkit-text-stroke-width: 0px; white-space: nowrap; background-color: rgb(251, 251, 251); text-decoration-thickness: initial; text-decoration-style: initial; text-decoration-color: initial; float: none; display: inline !important;&quot;&gt;- update_entry()&lt;/span&gt;&lt;/font&gt;&lt;/div&gt;&lt;div&gt;&lt;font style=&quot;font-size: 16px;&quot;&gt;&lt;span style=&quot;color: rgb(0, 0, 0); font-family: Helvetica; font-style: normal; font-variant-ligatures: normal; font-variant-caps: normal; font-weight: 400; letter-spacing: normal; orphans: 2; text-align: left; text-indent: 0px; text-transform: none; widows: 2; word-spacing: 0px; -webkit-text-stroke-width: 0px; white-space: nowrap; background-color: rgb(251, 251, 251); text-decoration-thickness: initial; text-decoration-style: initial; text-decoration-color: initial; float: none; display: inline !important;&quot;&gt;- delete_entry()&lt;/span&gt;&lt;/font&gt;&lt;/div&gt;" style="text;whiteSpace=wrap;html=1;" vertex="1" parent="7yRF4xjfkNmWZK7dUMPs-169">
          <mxGeometry y="320" width="363" height="282" as="geometry" />
        </mxCell>
        <mxCell id="7yRF4xjfkNmWZK7dUMPs-204" style="edgeStyle=orthogonalEdgeStyle;rounded=0;orthogonalLoop=1;jettySize=auto;html=1;entryX=0.5;entryY=0;entryDx=0;entryDy=0;endArrow=none;endFill=0;startArrow=diamondThin;startFill=0;startSize=15;strokeWidth=2;" edge="1" parent="1" source="ckGaQ8mt0c1OZZj6wi1W-47" target="ckGaQ8mt0c1OZZj6wi1W-88">
          <mxGeometry relative="1" as="geometry">
            <mxPoint x="1622" y="-3247" as="targetPoint" />
            <Array as="points">
              <mxPoint x="3118" y="-1604" />
              <mxPoint x="3118" y="-3309" />
              <mxPoint x="1622" y="-3309" />
              <mxPoint x="1622" y="-3169" />
            </Array>
          </mxGeometry>
        </mxCell>
        <mxCell id="7yRF4xjfkNmWZK7dUMPs-206" style="edgeStyle=orthogonalEdgeStyle;rounded=0;orthogonalLoop=1;jettySize=auto;html=1;entryX=0;entryY=0.5;entryDx=0;entryDy=0;endArrow=diamondThin;endFill=1;endSize=15;startArrow=diamondThin;startFill=1;startSize=15;exitX=0;exitY=0.5;exitDx=0;exitDy=0;" edge="1" parent="1" source="7yRF4xjfkNmWZK7dUMPs-172" target="7yRF4xjfkNmWZK7dUMPs-135">
          <mxGeometry relative="1" as="geometry">
            <Array as="points">
              <mxPoint x="438" y="-2582" />
              <mxPoint x="438" y="-2856" />
            </Array>
          </mxGeometry>
        </mxCell>
        <mxCell id="7yRF4xjfkNmWZK7dUMPs-207" style="edgeStyle=orthogonalEdgeStyle;rounded=0;orthogonalLoop=1;jettySize=auto;html=1;entryX=0;entryY=0.5;entryDx=0;entryDy=0;strokeWidth=2;endArrow=diamondThin;endFill=1;endSize=15;" edge="1" parent="1" source="7yRF4xjfkNmWZK7dUMPs-135" target="7yRF4xjfkNmWZK7dUMPs-51">
          <mxGeometry relative="1" as="geometry" />
        </mxCell>
        <mxCell id="7yRF4xjfkNmWZK7dUMPs-208" style="edgeStyle=orthogonalEdgeStyle;rounded=0;orthogonalLoop=1;jettySize=auto;html=1;entryX=0;entryY=0.5;entryDx=0;entryDy=0;dashed=1;strokeWidth=2;endArrow=open;endFill=0;endSize=15;" edge="1" parent="1" source="7yRF4xjfkNmWZK7dUMPs-172" target="ckGaQ8mt0c1OZZj6wi1W-31">
          <mxGeometry relative="1" as="geometry">
            <Array as="points">
              <mxPoint x="920" y="-2582" />
              <mxPoint x="920" y="-2788" />
            </Array>
          </mxGeometry>
        </mxCell>
      </root>
    </mxGraphModel>
  </diagram>
</mxfile>
